<?xml version="1.0" encoding="UTF-8" standalone="no"?>
<!-- Created with Inkscape (http://www.inkscape.org/) -->

<svg
   xmlns:dc="http://purl.org/dc/elements/1.1/"
   xmlns:cc="http://creativecommons.org/ns#"
   xmlns:rdf="http://www.w3.org/1999/02/22-rdf-syntax-ns#"
   xmlns:svg="http://www.w3.org/2000/svg"
   xmlns="http://www.w3.org/2000/svg"
   xmlns:xlink="http://www.w3.org/1999/xlink"
   xmlns:sodipodi="http://sodipodi.sourceforge.net/DTD/sodipodi-0.dtd"
   xmlns:inkscape="http://www.inkscape.org/namespaces/inkscape"
   width="96"
   height="64"
   viewBox="0 0 25.399999 16.933333"
   version="1.1"
   id="svg8"
   inkscape:version="0.92.4 (5da689c313, 2019-01-14)"
   sodipodi:docname="splash.svg"
   inkscape:export-filename="/home/martin/coding/jmop/jmop-src/src/main/resources/cz/martlin/jmop/gui/img/splash.png"
   inkscape:export-xdpi="300.00003"
   inkscape:export-ydpi="300.00003">
  <defs
     id="defs2">
    <linearGradient
       id="linearGradient4633"
       inkscape:collect="always">
      <stop
         id="stop4629"
         offset="0"
         style="stop-color:#9ad8ff;stop-opacity:1" />
      <stop
         id="stop4631"
         offset="1"
         style="stop-color:#3b82ac;stop-opacity:1" />
    </linearGradient>
    <linearGradient
       inkscape:collect="always"
       id="linearGradient4571">
      <stop
         style="stop-color:#9ad8ff;stop-opacity:1"
         offset="0"
         id="stop4567" />
      <stop
         style="stop-color:#3b82ac;stop-opacity:1"
         offset="1"
         id="stop4569" />
    </linearGradient>
    <linearGradient
       inkscape:collect="always"
       xlink:href="#linearGradient4633"
       id="linearGradient4573"
       x1="6.4697509"
       y1="295.50342"
       x2="13.632477"
       y2="283.0972"
       gradientUnits="userSpaceOnUse" />
    <linearGradient
       inkscape:collect="always"
       xlink:href="#linearGradient4571"
       id="linearGradient4627"
       gradientUnits="userSpaceOnUse"
       x1="6.4697509"
       y1="295.50342"
       x2="13.632477"
       y2="283.0972" />
    <mask
       maskUnits="userSpaceOnUse"
       id="mask4623">
      <path
         inkscape:transform-center-y="0.71539984"
         transform="matrix(1.0396755,-0.60025694,0.60025694,1.0396755,-174.84401,-6.3441742)"
         inkscape:transform-center-x="-4.6467179"
         d="m 15.04391,292.31939 c -0.522438,1.1296 -4.891474,1.03691 -6.1360352,1.0356 -1.4199122,-0.001 -6.2035029,0.11112 -7.0215726,-1.04945 -0.7170431,-1.01724 1.5477422,-4.7546 2.171162,-5.83176 0.7112555,-1.22893 3.0055176,-5.42795 4.4196325,-5.55614 1.2394805,-0.11235 3.3437313,3.71769 3.9648733,4.79616 0.708656,1.23044 3.197985,5.31684 2.60194,6.60559 z"
         inkscape:randomized="0"
         inkscape:rounded="0.2"
         inkscape:flatsided="false"
         sodipodi:arg2="1.4804029"
         sodipodi:arg1="0.52465108"
         sodipodi:r2="4.860641"
         sodipodi:r1="7.5965524"
         sodipodi:cy="288.51419"
         sodipodi:cx="8.4691029"
         sodipodi:sides="3"
         id="path4625"
         style="opacity:1;fill:url(#linearGradient4627);fill-opacity:1;fill-rule:nonzero;stroke:none;stroke-width:0.40000001;stroke-linecap:round;stroke-linejoin:round;stroke-miterlimit:4;stroke-dasharray:none;stroke-opacity:1;paint-order:markers fill stroke"
         sodipodi:type="star" />
    </mask>
  </defs>
  <sodipodi:namedview
     id="base"
     pagecolor="#ffffff"
     bordercolor="#666666"
     borderopacity="1.0"
     inkscape:pageopacity="0.0"
     inkscape:pageshadow="2"
     inkscape:zoom="2.8284271"
     inkscape:cx="-38.170443"
     inkscape:cy="69.945568"
     inkscape:document-units="px"
     inkscape:current-layer="layer1"
     showgrid="true"
     units="px"
     inkscape:window-width="1366"
     inkscape:window-height="708"
     inkscape:window-x="0"
     inkscape:window-y="0"
     inkscape:window-maximized="1"
     inkscape:snap-center="false"
     inkscape:snap-object-midpoints="false"
     inkscape:snap-page="true"
     inkscape:snap-global="true"
     inkscape:snap-bbox="true"
     inkscape:snap-nodes="true"
     inkscape:snap-bbox-midpoints="false"
     inkscape:snap-bbox-edge-midpoints="true"
     inkscape:bbox-nodes="true"
     inkscape:bbox-paths="true"
     inkscape:snap-intersection-paths="true"
     inkscape:snap-smooth-nodes="true">
    <inkscape:grid
       type="xygrid"
       id="grid4504" />
  </sodipodi:namedview>
  <metadata
     id="metadata5">
    <rdf:RDF>
      <cc:Work
         rdf:about="">
        <dc:format>image/svg+xml</dc:format>
        <dc:type
           rdf:resource="http://purl.org/dc/dcmitype/StillImage" />
        <dc:title></dc:title>
      </cc:Work>
    </rdf:RDF>
  </metadata>
  <g
     inkscape:label="Vrstva 1"
     inkscape:groupmode="layer"
     id="layer1"
     transform="translate(0,-280.06667)">
    <rect
       style="opacity:1;fill:#c8e7f7;fill-opacity:1;stroke:none;stroke-width:0.70545053;stroke-linecap:round;stroke-linejoin:round;stroke-miterlimit:4;stroke-dasharray:none;stroke-opacity:1"
       id="rect1525"
       width="25.4"
       height="16.933332"
       x="-1.110223e-16"
       y="280.06668" />
    <g
       id="g1539"
       transform="translate(6.3423895,-0.77542639)">
      <path
         inkscape:transform-center-y="0.71539984"
         transform="matrix(1.0396755,-0.60025694,0.60025694,1.0396755,-174.91705,-5.5354778)"
         inkscape:transform-center-x="-4.6467179"
         d="m 15.04391,292.31939 c -0.522438,1.1296 -4.891474,1.03691 -6.1360352,1.0356 -1.4199122,-0.001 -6.2035029,0.11112 -7.0215726,-1.04945 -0.7170431,-1.01724 1.5477422,-4.7546 2.171162,-5.83176 0.7112555,-1.22893 3.0055176,-5.42795 4.4196325,-5.55614 1.2394805,-0.11235 3.3437313,3.71769 3.9648733,4.79616 0.708656,1.23044 3.197985,5.31684 2.60194,6.60559 z"
         inkscape:randomized="0"
         inkscape:rounded="0.2"
         inkscape:flatsided="false"
         sodipodi:arg2="1.4804029"
         sodipodi:arg1="0.52465108"
         sodipodi:r2="4.860641"
         sodipodi:r1="7.5965524"
         sodipodi:cy="288.51419"
         sodipodi:cx="8.4691029"
         sodipodi:sides="3"
         id="path4508"
         style="opacity:1;fill:url(#linearGradient4573);fill-opacity:1;fill-rule:nonzero;stroke:none;stroke-width:0.40000001;stroke-linecap:round;stroke-linejoin:round;stroke-miterlimit:4;stroke-dasharray:none;stroke-opacity:1;paint-order:markers fill stroke"
         sodipodi:type="star" />
      <g
         id="g1466"
         transform="translate(-0.28074398,0.59920413)">
        <g
           transform="matrix(0.45416243,0,0,0.45416243,-7.0892256,159.31431)"
           style="fill:#c8e7f7;fill-opacity:1;stroke:#c8e7f7;stroke-width:1;stroke-miterlimit:4;stroke-dasharray:none;stroke-opacity:1"
           id="g1444" />
        <g
           style="fill:#c8e7f7;fill-opacity:1"
           transform="translate(2.3910685,-4.2229935)"
           id="g1504">
          <path
             style="color:#000000;font-style:normal;font-variant:normal;font-weight:normal;font-stretch:normal;font-size:medium;line-height:normal;font-family:sans-serif;font-variant-ligatures:normal;font-variant-position:normal;font-variant-caps:normal;font-variant-numeric:normal;font-variant-alternates:normal;font-feature-settings:normal;text-indent:0;text-align:start;text-decoration:none;text-decoration-line:none;text-decoration-style:solid;text-decoration-color:#000000;letter-spacing:normal;word-spacing:normal;text-transform:none;writing-mode:lr-tb;direction:ltr;text-orientation:mixed;dominant-baseline:auto;baseline-shift:baseline;text-anchor:start;white-space:normal;shape-padding:0;clip-rule:nonzero;display:inline;overflow:visible;visibility:visible;opacity:1;isolation:auto;mix-blend-mode:normal;color-interpolation:sRGB;color-interpolation-filters:linearRGB;solid-color:#000000;solid-opacity:1;vector-effect:none;fill:#c8e7f7;fill-opacity:1;fill-rule:nonzero;stroke:none;stroke-width:1;stroke-linecap:square;stroke-linejoin:round;stroke-miterlimit:4;stroke-dasharray:none;stroke-dashoffset:0;stroke-opacity:1;color-rendering:auto;image-rendering:auto;shape-rendering:auto;text-rendering:auto;enable-background:accumulate"
             d="m 1.5859496,288.66666 c -0.2567043,-3.7e-4 -0.4719892,0.1937 -0.4981608,0.44907 -0.083884,0.83332 0.2327619,1.72445 0.7265707,2.49442 0.2923456,0.45584 0.6690547,0.83652 1.0862386,1.14618 -0.3395257,0.26538 -0.6502855,0.60225 -0.9219076,1.00046 -0.5066944,0.74282 -0.879571,1.66787 -0.8929687,2.61121 -0.00414,0.27913 0.2210673,0.50759 0.5002278,0.50746 h 2.3631632 0.039274 2.3631631 c 0.2791605,1.3e-4 0.5043667,-0.22833 0.5002277,-0.50746 -0.01345,-0.94741 -0.3970199,-1.87322 -0.9141559,-2.61535 -0.2765899,-0.39693 -0.5921142,-0.7321 -0.9337932,-0.99632 0.4191392,-0.30847 0.7976738,-0.68613 1.0955404,-1.1405 0.5041579,-0.76905 0.8347237,-1.66183 0.7503417,-2.5001 -0.02617,-0.25537 -0.2414564,-0.44944 -0.4981607,-0.44907 h -2.3533447 -0.00982 -0.039274 z m 0.7953003,0.46612 h 3.175 c 0.2645833,0 0.5291666,0.26459 0.5291666,0.52916 0,1.05833 -0.79375,2.38126 -1.5875,2.64584 -0.561268,0.18709 -0.4970637,0.18709 -1.0583333,0 -0.79375,-0.26458 -1.5875,-1.32291 -1.5875,-2.64584 0,-0.26457 0.2645833,-0.52916 0.5291667,-0.52916 z m 1.5875,3.89847 c 0.124266,0 0.2485326,0.047 0.5291666,0.14056 0.79375,0.26458 1.5875,1.5875 1.5875,2.64583 0,0.26458 -0.2645833,0.52917 -0.5291666,0.52917 h -3.175 c -0.2645834,0 -0.5291667,-0.26459 -0.5291667,-0.52917 0,-1.32292 0.79375,-2.38125 1.5875,-2.64583 0.2806348,-0.0935 0.4049006,-0.14056 0.5291667,-0.14056 z"
             id="path1441"
             inkscape:connector-curvature="0"
             sodipodi:nodetypes="ccsccccccccccsccccccsssccssscsssscs" />
          <path
             style="fill:#c8e7f7;fill-opacity:1;stroke:#c8e7f7;stroke-width:0.54393786;stroke-linecap:round;stroke-linejoin:miter;stroke-miterlimit:4;stroke-dasharray:none;stroke-opacity:1"
             d="M 0.80887921,288.26878 H 7.1291854"
             id="path1497"
             inkscape:connector-curvature="0" />
          <path
             inkscape:connector-curvature="0"
             id="path1499"
             d="M 0.80887921,297.26459 H 7.1291854"
             style="fill:#c8e7f7;fill-opacity:1;stroke:#c8e7f7;stroke-width:0.54393786;stroke-linecap:round;stroke-linejoin:miter;stroke-miterlimit:4;stroke-dasharray:none;stroke-opacity:1" />
        </g>
      </g>
    </g>
    <g
       id="g1480"
       transform="translate(-29.633333)">
      <g
         id="g1474"
         style="fill:#6ba2dd;fill-opacity:1;stroke:#c8e7f7;stroke-width:1;stroke-miterlimit:4;stroke-dasharray:none;stroke-opacity:1"
         transform="matrix(0.45416243,0,0,0.45416243,6.5749461,157.41734)">
        <g
           id="g1470"
           style="fill:#6ba2dd;fill-opacity:1;stroke:#c8e7f7;stroke-width:1;stroke-miterlimit:4;stroke-dasharray:none;stroke-opacity:1">
          <path
             style="fill:#6ba2dd;fill-opacity:1;stroke:#c8e7f7;stroke-width:8.32197285;stroke-linecap:square;stroke-linejoin:round;stroke-miterlimit:4;stroke-dasharray:none;stroke-opacity:1"
             d="M 0,4 V 64 H 20 C 19.808287,50.502475 8.542686,35.633776 0,34 10.695137,31.323679 21.101406,14.941695 20,4 Z"
             transform="matrix(0.26458333,0,0,0.26458333,0,280.06667)"
             id="path1468"
             inkscape:connector-curvature="0"
             sodipodi:nodetypes="cccccc" />
        </g>
        <path
           inkscape:connector-curvature="0"
           style="fill:#6ba2dd;fill-opacity:1;stroke:#c8e7f7;stroke-width:2.20185542;stroke-linecap:square;stroke-linejoin:round;stroke-miterlimit:4;stroke-dasharray:none;stroke-opacity:1"
           d="M 0.08727514,281.125 V 297 H -5.2043915 c 0.050724,-3.57122 2.9441391,-7.50523 5.2043915,-7.9375 -2.829755,-0.70811 -5.4958051,-5.04251 -5.2043915,-7.9375 z"
           id="path1472"
           sodipodi:nodetypes="cccccc" />
      </g>
      <path
         id="path1476"
         style="fill:#6ba2dd;fill-opacity:1;stroke:none;stroke-width:0.26458332px;stroke-linecap:butt;stroke-linejoin:miter;stroke-opacity:1"
         d="M 4.9874461,285.09376 H 8.162446 c 0.2645833,0 0.5291667,0.26458 0.5291667,0.52916 0,1.05833 -0.79375,2.38125 -1.5875,2.64583 -0.561268,0.18709 -0.4970638,0.18709 -1.0583333,0 -0.79375,-0.26458 -1.5875,-1.32291 -1.5875,-2.64583 0,-0.26458 0.2645833,-0.52916 0.5291667,-0.52916 z"
         inkscape:connector-curvature="0"
         sodipodi:nodetypes="csssssc" />
      <path
         sodipodi:nodetypes="csssssc"
         inkscape:connector-curvature="0"
         d="M 4.9874461,292.2375 H 8.162446 c 0.2645833,0 0.5291667,-0.26458 0.5291667,-0.52916 0,-1.05833 -0.79375,-2.38125 -1.5875,-2.64583 -0.561268,-0.18709 -0.4970638,-0.18709 -1.0583333,0 -0.79375,0.26458 -1.5875,1.32291 -1.5875,2.64583 0,0.26458 0.2645833,0.52916 0.5291667,0.52916 z"
         style="fill:#6ba2dd;fill-opacity:1;stroke:none;stroke-width:0.26458332px;stroke-linecap:butt;stroke-linejoin:miter;stroke-opacity:1"
         id="path1478" />
    </g>
  </g>
</svg>
