<?xml version="1.0" encoding="UTF-8" standalone="no"?>
<!-- Created with Inkscape (http://www.inkscape.org/) -->

<svg
   xmlns:dc="http://purl.org/dc/elements/1.1/"
   xmlns:cc="http://creativecommons.org/ns#"
   xmlns:rdf="http://www.w3.org/1999/02/22-rdf-syntax-ns#"
   xmlns:svg="http://www.w3.org/2000/svg"
   xmlns="http://www.w3.org/2000/svg"
   xmlns:xlink="http://www.w3.org/1999/xlink"
   xmlns:sodipodi="http://sodipodi.sourceforge.net/DTD/sodipodi-0.dtd"
   xmlns:inkscape="http://www.inkscape.org/namespaces/inkscape"
   width="64"
   height="64"
   viewBox="0 0 16.933333 16.933333"
   version="1.1"
   id="svg8546"
   inkscape:version="0.92.1 r15371"
   sodipodi:docname="add-track.svg"
   inkscape:export-filename="/home/martin/Programovani/Java/java8-2/jmop/jmop/src/main/resources/cz/martlin/jmop/gui/img/add-track.png"
   inkscape:export-xdpi="96"
   inkscape:export-ydpi="96">
  <defs
     id="defs8540">
    <linearGradient
       inkscape:collect="always"
       xlink:href="#linearGradient4678"
       id="linearGradient4662"
       gradientUnits="userSpaceOnUse"
       x1="41.551346"
       y1="280.59583"
       x2="43.668011"
       y2="277.42081" />
    <linearGradient
       inkscape:collect="always"
       id="linearGradient4678">
      <stop
         style="stop-color:#9ad8ff;stop-opacity:1"
         offset="0"
         id="stop4674" />
      <stop
         style="stop-color:#3b82ac;stop-opacity:0"
         offset="1"
         id="stop4676" />
    </linearGradient>
    <linearGradient
       inkscape:collect="always"
       xlink:href="#linearGradient4633"
       id="linearGradient4672"
       x1="38.376011"
       y1="272.15924"
       x2="45.89555"
       y2="272.15924"
       gradientUnits="userSpaceOnUse" />
    <linearGradient
       id="linearGradient4633"
       inkscape:collect="always">
      <stop
         id="stop4629"
         offset="0"
         style="stop-color:#9ad8ff;stop-opacity:1" />
      <stop
         id="stop4631"
         offset="1"
         style="stop-color:#3b82ac;stop-opacity:1" />
    </linearGradient>
    <linearGradient
       inkscape:collect="always"
       xlink:href="#linearGradient4633"
       id="linearGradient4686"
       x1="42.305737"
       y1="280.59583"
       x2="42.305737"
       y2="263.66248"
       gradientUnits="userSpaceOnUse" />
  </defs>
  <sodipodi:namedview
     id="base"
     pagecolor="#ffffff"
     bordercolor="#666666"
     borderopacity="1.0"
     inkscape:pageopacity="0.0"
     inkscape:pageshadow="2"
     inkscape:zoom="3.959798"
     inkscape:cx="-50.870283"
     inkscape:cy="26.067018"
     inkscape:document-units="px"
     inkscape:current-layer="layer1"
     showgrid="true"
     units="px"
     inkscape:window-width="1366"
     inkscape:window-height="712"
     inkscape:window-x="0"
     inkscape:window-y="0"
     inkscape:window-maximized="1">
    <inkscape:grid
       type="xygrid"
       id="grid9109" />
  </sodipodi:namedview>
  <metadata
     id="metadata8543">
    <rdf:RDF>
      <cc:Work
         rdf:about="">
        <dc:format>image/svg+xml</dc:format>
        <dc:type
           rdf:resource="http://purl.org/dc/dcmitype/StillImage" />
        <dc:title />
      </cc:Work>
    </rdf:RDF>
  </metadata>
  <g
     inkscape:label="Vrstva 1"
     inkscape:groupmode="layer"
     id="layer1"
     transform="translate(0,-280.06665)">
    <g
       id="g4650"
       transform="matrix(1.1395402,0,0,1.1395402,-39.80738,-21.101669)">
      <g
         id="g4646"
         style="fill:url(#linearGradient4662);fill-opacity:1;stroke:url(#linearGradient4672)"
         transform="translate(0,-0.52916242)">
        <path
           sodipodi:nodetypes="sssssccss"
           inkscape:connector-curvature="0"
           id="path4636"
           d="m 44.461772,276.36248 c 0.294512,0.15618 0.488336,0.0663 0.529156,-0.26458 0.363602,-2.9471 0.07869,-5.64008 -0.264573,-10.31875 -0.01936,-0.26388 -1.1e-5,-0.52917 0.264573,-0.52917 h 0.529166 c 0.264584,0 0.246879,0.26518 0.264594,0.52917 -0.178103,4.20446 0.728322,8.45848 0,12.17083 -0.282304,1.17473 -7.464972,2.3858 -7.408344,-0.26458 0.02948,-1.37979 3.015005,-2.95115 6.085428,-1.32292 z"
           style="opacity:1;fill:url(#linearGradient4686);fill-opacity:1;fill-rule:nonzero;stroke:url(#linearGradient4686);stroke-width:0;stroke-linecap:round;stroke-linejoin:round;stroke-miterlimit:4;stroke-dasharray:none;stroke-opacity:1;paint-order:markers fill stroke" />
      </g>
      <path
         style="fill:#c8e7f7;fill-opacity:1;fill-rule:evenodd;stroke:none;stroke-width:0.21754639px;stroke-linecap:butt;stroke-linejoin:miter;stroke-opacity:1"
         d="m 42.362741,266.84336 c -0.870199,10e-6 -0.87024,0.94061 -0.87019,1.30529 1.31e-4,0.87013 0.16163,2.01382 -0.21755,2.393 l -0.217539,0.21755 c -0.37919,0.37917 -1.522871,0.21767 -2.393011,0.21754 -0.364669,-5e-5 -1.30527,0 -1.30528,0.87019 10e-6,0.87019 0.940611,0.87025 1.30528,0.87019 0.87014,-1.4e-4 2.013821,-0.16162 2.393011,0.21754 l 0.217539,0.21755 c 0.37918,0.37918 0.217681,1.52288 0.21755,2.39301 -5e-5,0.36466 -9e-6,1.30526 0.87019,1.30527 0.87019,-10e-6 0.87024,-0.94061 0.870181,-1.30527 -1.31e-4,-0.87013 -0.161611,-2.01383 0.21755,-2.39301 l 0.217539,-0.21755 c 0.37919,-0.37916 1.52288,-0.21768 2.39302,-0.21754 0.364661,6e-5 1.30526,0 1.30527,-0.87019 -1e-5,-0.87019 -0.940609,-0.87024 -1.30527,-0.87019 -0.87014,1.3e-4 -2.01383,0.16163 -2.39302,-0.21754 l -0.217539,-0.21755 c -0.379161,-0.37918 -0.217681,-1.52287 -0.21755,-2.393 5.9e-5,-0.36468 9e-6,-1.30528 -0.870181,-1.30529 z"
         id="path4648"
         inkscape:connector-curvature="0"
         inkscape:transform-center-x="-0.1889881" />
    </g>
  </g>
</svg>
