<?xml version="1.0" encoding="UTF-8" standalone="no"?>
<!-- Created with Inkscape (http://www.inkscape.org/) -->

<svg
   xmlns:dc="http://purl.org/dc/elements/1.1/"
   xmlns:cc="http://creativecommons.org/ns#"
   xmlns:rdf="http://www.w3.org/1999/02/22-rdf-syntax-ns#"
   xmlns:svg="http://www.w3.org/2000/svg"
   xmlns="http://www.w3.org/2000/svg"
   xmlns:xlink="http://www.w3.org/1999/xlink"
   xmlns:sodipodi="http://sodipodi.sourceforge.net/DTD/sodipodi-0.dtd"
   xmlns:inkscape="http://www.inkscape.org/namespaces/inkscape"
   width="384"
   height="256"
   viewBox="0 0 101.6 67.733336"
   version="1.1"
   id="svg4645"
   inkscape:version="0.92.1 r15371"
   sodipodi:docname="buttons.svg">
  <defs
     id="defs4639">
    <linearGradient
       inkscape:collect="always"
       id="linearGradient4678">
      <stop
         style="stop-color:#9ad8ff;stop-opacity:1"
         offset="0"
         id="stop4674" />
      <stop
         style="stop-color:#3b82ac;stop-opacity:0"
         offset="1"
         id="stop4676" />
    </linearGradient>
    <linearGradient
       inkscape:collect="always"
       xlink:href="#linearGradient4633"
       id="linearGradient4573"
       x1="6.4697509"
       y1="295.50342"
       x2="13.632477"
       y2="283.0972"
       gradientUnits="userSpaceOnUse" />
    <linearGradient
       id="linearGradient4633"
       inkscape:collect="always">
      <stop
         id="stop4629"
         offset="0"
         style="stop-color:#9ad8ff;stop-opacity:1" />
      <stop
         id="stop4631"
         offset="1"
         style="stop-color:#3b82ac;stop-opacity:1" />
    </linearGradient>
    <linearGradient
       inkscape:collect="always"
       xlink:href="#linearGradient4633"
       id="linearGradient5248"
       gradientUnits="userSpaceOnUse"
       x1="6.4697509"
       y1="295.50342"
       x2="13.632477"
       y2="283.0972" />
    <linearGradient
       inkscape:collect="always"
       xlink:href="#linearGradient4633"
       id="linearGradient5264"
       gradientUnits="userSpaceOnUse"
       x1="6.4697509"
       y1="295.50342"
       x2="13.632477"
       y2="283.0972" />
    <linearGradient
       inkscape:collect="always"
       xlink:href="#linearGradient4633"
       id="linearGradient5281"
       gradientUnits="userSpaceOnUse"
       x1="6.4697509"
       y1="295.50342"
       x2="13.632477"
       y2="283.0972"
       gradientTransform="matrix(1.0396755,-0.60025696,0.60025696,1.0396755,-100.34177,-6.3537773)" />
    <linearGradient
       inkscape:collect="always"
       xlink:href="#linearGradient4633"
       id="linearGradient5293"
       gradientUnits="userSpaceOnUse"
       x1="6.4697509"
       y1="295.50342"
       x2="13.632477"
       y2="283.0972" />
    <linearGradient
       inkscape:collect="always"
       xlink:href="#linearGradient4633"
       id="linearGradient5295"
       gradientUnits="userSpaceOnUse"
       gradientTransform="matrix(1.0396755,-0.60025696,0.60025696,1.0396755,-100.34177,-6.3537773)"
       x1="6.4697509"
       y1="295.50342"
       x2="13.632477"
       y2="283.0972" />
    <linearGradient
       inkscape:collect="always"
       xlink:href="#linearGradient4633"
       id="linearGradient5299"
       gradientUnits="userSpaceOnUse"
       x1="6.4697509"
       y1="295.50342"
       x2="13.632477"
       y2="283.0972"
       gradientTransform="matrix(0.94932935,-0.54809558,0.54809558,0.94932935,-128.07187,19.208442)" />
    <linearGradient
       inkscape:collect="always"
       xlink:href="#linearGradient4633"
       id="linearGradient5312"
       gradientUnits="userSpaceOnUse"
       gradientTransform="matrix(0.94932935,-0.54809558,0.54809558,0.94932935,-120.13437,19.208442)"
       x1="6.4697509"
       y1="295.50342"
       x2="13.632477"
       y2="283.0972" />
    <linearGradient
       inkscape:collect="always"
       xlink:href="#linearGradient4633"
       id="linearGradient5330"
       gradientUnits="userSpaceOnUse"
       gradientTransform="matrix(0.94932935,-0.54809558,0.54809558,0.94932935,-112.19687,19.208442)"
       x1="6.4697509"
       y1="295.50342"
       x2="13.632477"
       y2="283.0972" />
    <linearGradient
       gradientTransform="matrix(1.0396755,-0.60025697,0.60025697,1.0396755,-118.33343,-6.353783)"
       inkscape:collect="always"
       xlink:href="#linearGradient4633"
       id="linearGradient5264-3"
       gradientUnits="userSpaceOnUse"
       x1="6.4697509"
       y1="295.50342"
       x2="13.632477"
       y2="283.0972" />
    <linearGradient
       inkscape:collect="always"
       xlink:href="#linearGradient4633"
       id="linearGradient4527"
       gradientUnits="userSpaceOnUse"
       x1="6.4697509"
       y1="295.50342"
       x2="13.632477"
       y2="283.0972" />
    <linearGradient
       inkscape:collect="always"
       xlink:href="#linearGradient4633"
       id="linearGradient4561"
       gradientUnits="userSpaceOnUse"
       x1="6.4697509"
       y1="295.50342"
       x2="13.632477"
       y2="283.0972" />
    <linearGradient
       inkscape:collect="always"
       xlink:href="#linearGradient4633"
       id="linearGradient4578"
       x1="32"
       y1="192"
       x2="32"
       y2="128"
       gradientUnits="userSpaceOnUse"
       gradientTransform="matrix(0.27275495,0,0,0.27275495,101.10971,244.87686)" />
    <linearGradient
       inkscape:collect="always"
       xlink:href="#linearGradient4633"
       id="linearGradient4601"
       gradientUnits="userSpaceOnUse"
       gradientTransform="matrix(0.27275495,0,0,0.27275495,101.10971,244.87686)"
       x1="32"
       y1="192"
       x2="32"
       y2="128" />
    <linearGradient
       inkscape:collect="always"
       xlink:href="#linearGradient4633"
       id="linearGradient9426"
       x1="42.333336"
       y1="280.06665"
       x2="42.333336"
       y2="263.13333"
       gradientUnits="userSpaceOnUse" />
    <linearGradient
       inkscape:collect="always"
       xlink:href="#linearGradient4633"
       id="linearGradient9513"
       x1="42.333336"
       y1="279.00833"
       x2="42.333336"
       y2="264.19165"
       gradientUnits="userSpaceOnUse" />
    <linearGradient
       inkscape:collect="always"
       xlink:href="#linearGradient4633"
       id="linearGradient9527"
       gradientUnits="userSpaceOnUse"
       x1="42.333336"
       y1="279.00833"
       x2="42.333336"
       y2="264.19165"
       gradientTransform="translate(16.933334)" />
    <linearGradient
       inkscape:collect="always"
       xlink:href="#linearGradient4633"
       id="linearGradient9529"
       gradientUnits="userSpaceOnUse"
       x1="42.333336"
       y1="279.00833"
       x2="42.333336"
       y2="264.19165"
       gradientTransform="translate(16.933334)" />
    <linearGradient
       inkscape:collect="always"
       xlink:href="#linearGradient4633"
       id="linearGradient9531"
       gradientUnits="userSpaceOnUse"
       x1="42.333336"
       y1="279.00833"
       x2="42.333336"
       y2="264.19165"
       gradientTransform="translate(16.933334)" />
    <linearGradient
       inkscape:collect="always"
       xlink:href="#linearGradient4633"
       id="linearGradient9533"
       gradientUnits="userSpaceOnUse"
       x1="42.333336"
       y1="279.00833"
       x2="42.333336"
       y2="264.19165"
       gradientTransform="translate(16.933334)" />
    <linearGradient
       inkscape:collect="always"
       xlink:href="#linearGradient4633"
       id="linearGradient9535"
       gradientUnits="userSpaceOnUse"
       x1="42.333336"
       y1="279.00833"
       x2="42.333336"
       y2="264.19165"
       gradientTransform="translate(16.933334)" />
    <linearGradient
       inkscape:collect="always"
       xlink:href="#linearGradient4678"
       id="linearGradient4662"
       gradientUnits="userSpaceOnUse"
       x1="41.551346"
       y1="280.59583"
       x2="43.668011"
       y2="277.42081" />
    <linearGradient
       inkscape:collect="always"
       xlink:href="#linearGradient4633"
       id="linearGradient4672"
       x1="38.376011"
       y1="272.15924"
       x2="45.89555"
       y2="272.15924"
       gradientUnits="userSpaceOnUse" />
    <linearGradient
       inkscape:collect="always"
       xlink:href="#linearGradient4633"
       id="linearGradient4686"
       x1="42.305737"
       y1="280.59583"
       x2="42.305737"
       y2="263.66248"
       gradientUnits="userSpaceOnUse" />
    <linearGradient
       inkscape:collect="always"
       xlink:href="#linearGradient4633"
       id="linearGradient4688"
       gradientUnits="userSpaceOnUse"
       x1="42.305737"
       y1="280.59583"
       x2="42.305737"
       y2="263.66248" />
    <linearGradient
       inkscape:collect="always"
       xlink:href="#linearGradient4633"
       id="linearGradient9076"
       gradientUnits="userSpaceOnUse"
       x1="42.333336"
       y1="279.00833"
       x2="42.333336"
       y2="264.19165" />
    <linearGradient
       inkscape:collect="always"
       xlink:href="#linearGradient4633"
       id="linearGradient9078"
       gradientUnits="userSpaceOnUse"
       x1="42.333336"
       y1="279.00833"
       x2="42.333336"
       y2="264.19165" />
    <linearGradient
       inkscape:collect="always"
       xlink:href="#linearGradient4633"
       id="linearGradient9080"
       gradientUnits="userSpaceOnUse"
       x1="42.333336"
       y1="279.00833"
       x2="42.333336"
       y2="264.19165" />
    <linearGradient
       inkscape:collect="always"
       xlink:href="#linearGradient4633"
       id="linearGradient9082"
       gradientUnits="userSpaceOnUse"
       x1="42.333336"
       y1="279.00833"
       x2="42.333336"
       y2="264.19165" />
    <linearGradient
       inkscape:collect="always"
       xlink:href="#linearGradient4633"
       id="linearGradient9084"
       gradientUnits="userSpaceOnUse"
       x1="42.333336"
       y1="279.00833"
       x2="42.333336"
       y2="264.19165" />
    <linearGradient
       inkscape:collect="always"
       xlink:href="#linearGradient4633"
       id="linearGradient14540"
       x1="100"
       y1="128"
       x2="100"
       y2="64"
       gradientUnits="userSpaceOnUse"
       gradientTransform="matrix(0.26458334,0,0,0.26458334,15.875,229.26665)" />
    <linearGradient
       inkscape:collect="always"
       xlink:href="#linearGradient4633"
       id="linearGradient14550"
       x1="25.4"
       y1="263.13333"
       x2="25.4"
       y2="246.19998"
       gradientUnits="userSpaceOnUse" />
    <linearGradient
       inkscape:collect="always"
       xlink:href="#linearGradient4633"
       id="linearGradient15213"
       x1="60.325001"
       y1="246.19998"
       x2="60.325001"
       y2="263.13333"
       gradientUnits="userSpaceOnUse"
       gradientTransform="matrix(0.86527036,0,0,0.86527036,9.2272598,32.560928)" />
  </defs>
  <sodipodi:namedview
     id="base"
     pagecolor="#ffffff"
     bordercolor="#666666"
     borderopacity="1.0"
     inkscape:pageopacity="0.0"
     inkscape:pageshadow="2"
     inkscape:zoom="11.2"
     inkscape:cx="226.34814"
     inkscape:cy="148.4387"
     inkscape:document-units="px"
     inkscape:current-layer="layer1"
     showgrid="true"
     inkscape:window-width="1366"
     inkscape:window-height="712"
     inkscape:window-x="0"
     inkscape:window-y="0"
     inkscape:window-maximized="1"
     units="px"
     showguides="true"
     inkscape:guide-bbox="true"
     inkscape:snap-intersection-paths="false"
     inkscape:snap-smooth-nodes="true"
     inkscape:object-nodes="false"
     inkscape:snap-nodes="true">
    <inkscape:grid
       type="xygrid"
       id="grid5209" />
    <sodipodi:guide
       position="16.933334,16.66875"
       orientation="1,0"
       id="guide5314"
       inkscape:locked="false" />
    <sodipodi:guide
       position="33.866667,16.139584"
       orientation="1,0"
       id="guide5316"
       inkscape:locked="false" />
    <sodipodi:guide
       position="50.800001,42.333334"
       orientation="1,0"
       id="guide5318"
       inkscape:locked="false" />
    <sodipodi:guide
       position="67.733333,15.610417"
       orientation="1,0"
       id="guide5320"
       inkscape:locked="false" />
    <sodipodi:guide
       position="84.666667,14.022917"
       orientation="1,0"
       id="guide5322"
       inkscape:locked="false" />
    <sodipodi:guide
       position="101.6,18.25625"
       orientation="1,0"
       id="guide5324"
       inkscape:locked="false" />
    <sodipodi:guide
       position="0,10.583334"
       orientation="1,0"
       id="guide5326"
       inkscape:locked="false" />
    <sodipodi:guide
       position="118.53333,-33.866668"
       orientation="1,0"
       id="guide4523"
       inkscape:locked="false" />
    <sodipodi:guide
       position="-7.6729168,16.933334"
       orientation="0,1"
       id="guide4547"
       inkscape:locked="false" />
    <sodipodi:guide
       position="-4.2333333,50.800002"
       orientation="0,1"
       id="guide4551"
       inkscape:locked="false" />
    <sodipodi:guide
       position="-3.175,67.733336"
       orientation="0,1"
       id="guide4553"
       inkscape:locked="false" />
    <sodipodi:guide
       position="4.2333333,33.866668"
       orientation="0,1"
       id="guide4664"
       inkscape:locked="false" />
  </sodipodi:namedview>
  <metadata
     id="metadata4642">
    <rdf:RDF>
      <cc:Work
         rdf:about="">
        <dc:format>image/svg+xml</dc:format>
        <dc:type
           rdf:resource="http://purl.org/dc/dcmitype/StillImage" />
        <dc:title />
      </cc:Work>
    </rdf:RDF>
  </metadata>
  <g
     inkscape:label="Vrstva 1"
     inkscape:groupmode="layer"
     id="layer1"
     transform="translate(0,-229.26665)">
    <path
       sodipodi:type="star"
       style="opacity:1;fill:url(#linearGradient4573);fill-opacity:1;fill-rule:nonzero;stroke:none;stroke-width:0.40000001;stroke-linecap:round;stroke-linejoin:round;stroke-miterlimit:4;stroke-dasharray:none;stroke-opacity:1;paint-order:markers fill stroke"
       id="path4508"
       sodipodi:sides="3"
       sodipodi:cx="8.4691029"
       sodipodi:cy="288.51419"
       sodipodi:r1="7.5965524"
       sodipodi:r2="4.860641"
       sodipodi:arg1="0.52465108"
       sodipodi:arg2="1.4804029"
       inkscape:flatsided="false"
       inkscape:rounded="0.2"
       inkscape:randomized="0"
       d="m 15.04391,292.31939 c -0.522438,1.1296 -4.891474,1.03691 -6.1360352,1.0356 -1.4199122,-0.001 -6.2035029,0.11112 -7.0215726,-1.04945 -0.7170431,-1.01724 1.5477422,-4.7546 2.171162,-5.83176 0.7112555,-1.22893 3.0055176,-5.42795 4.4196325,-5.55614 1.2394805,-0.11235 3.3437313,3.71769 3.9648733,4.79616 0.708656,1.23044 3.197985,5.31684 2.60194,6.60559 z"
       inkscape:transform-center-x="-4.6467179"
       transform="matrix(1.0396755,-0.60025696,0.60025696,1.0396755,-175.23253,-6.3537773)"
       inkscape:transform-center-y="0.71539984" />
    <path
       inkscape:transform-center-y="0.65323288"
       transform="matrix(0.94932935,-0.54809558,0.54809558,0.94932935,-140.77187,19.208442)"
       inkscape:transform-center-x="-4.2429287"
       d="m 16.984203,286.314 c 0.312203,1.20827 -2.083489,4.54201 -2.717109,5.61715 -0.63362,1.07515 -2.389518,4.78594 -3.597796,5.09814 -1.2082771,0.3122 -4.5420146,-2.08349 -5.6171572,-2.71711 -1.0751426,-0.63362 -4.78593378,-2.38952 -5.09813759,-3.59779 -0.31220381,-1.20828 2.08348899,-4.54202 2.71710869,-5.61716 0.6336197,-1.07514 2.389518,-4.78594 3.5977955,-5.09814 1.2082774,-0.3122 4.5420146,2.08349 5.6171576,2.71711 1.075143,0.63362 4.785934,2.38952 5.098138,3.5978 z"
       inkscape:randomized="0"
       inkscape:rounded="0.2"
       inkscape:flatsided="false"
       sodipodi:arg2="0.53254107"
       sodipodi:arg1="-0.25285709"
       sodipodi:r2="6.7299576"
       sodipodi:r1="8.7947588"
       sodipodi:cy="288.51419"
       sodipodi:cx="8.4691029"
       sodipodi:sides="4"
       id="path5246"
       style="opacity:1;fill:url(#linearGradient5248);fill-opacity:1;fill-rule:nonzero;stroke:none;stroke-width:0.40000001;stroke-linecap:round;stroke-linejoin:round;stroke-miterlimit:4;stroke-dasharray:none;stroke-opacity:1;paint-order:markers fill stroke"
       sodipodi:type="star" />
    <g
       id="g5285">
      <path
         transform="matrix(1.0396755,-0.60025696,0.60025696,1.0396755,-107.76378,-6.3537773)"
         style="opacity:1;fill:url(#linearGradient5264);fill-opacity:1;fill-rule:nonzero;stroke:none;stroke-width:0.40000001;stroke-linecap:round;stroke-linejoin:round;stroke-miterlimit:4;stroke-dasharray:none;stroke-opacity:1;paint-order:markers fill stroke"
         inkscape:transform-center-x="-4.6467179"
         inkscape:transform-center-y="0.71539984"
         d="m 10.262439,289.5588 c -0.5224381,1.1296 -2.9249859,2.63753 -3.2230743,2.7174 -1.3715302,0.3675 -4.3349928,1.18991 -5.1530625,0.0293 -0.7170431,-1.01724 1.5477422,-4.7546 2.171162,-5.83176 0.7112555,-1.22893 2.9693671,-5.44882 4.383482,-5.57701 1.2394805,-0.11235 1.7972848,2.21244 2.1325138,3.73824 0.335229,1.5258 0.285022,3.63504 -0.311021,4.92379 z"
         id="path5271"
         inkscape:connector-curvature="0"
         sodipodi:nodetypes="ssccczs" />
      <path
         sodipodi:nodetypes="ssccczs"
         inkscape:connector-curvature="0"
         id="path5279"
         d="m 84.137526,288.53331 c 0.134885,1.48802 -1.45784,4.49792 -1.719813,4.75989 -1.205352,1.20535 -3.792734,3.83923 -5.339925,3.12362 -1.356098,-0.62719 -1.244832,-5.87228 -1.243251,-7.36639 0.0018,-1.70462 -0.183514,-7.44739 1.20976,-8.4295 1.221219,-0.86081 3.196626,1.22139 4.461027,2.6065 1.264401,1.38512 2.478288,3.60818 2.632178,5.30584 z"
         inkscape:transform-center-y="0.71539984"
         inkscape:transform-center-x="-4.6467179"
         style="opacity:1;fill:url(#linearGradient5281);fill-opacity:1;fill-rule:nonzero;stroke:none;stroke-width:0.48020557;stroke-linecap:round;stroke-linejoin:round;stroke-miterlimit:4;stroke-dasharray:none;stroke-opacity:1;paint-order:markers fill stroke" />
    </g>
    <g
       id="g5291"
       transform="matrix(-1,0,0,1,169.31968,0)">
      <path
         sodipodi:nodetypes="ssccczs"
         inkscape:connector-curvature="0"
         id="path5287"
         d="m 10.262439,289.5588 c -0.5224381,1.1296 -2.9249859,2.63753 -3.2230743,2.7174 -1.3715302,0.3675 -4.3349928,1.18991 -5.1530625,0.0293 -0.7170431,-1.01724 1.5477422,-4.7546 2.171162,-5.83176 0.7112555,-1.22893 2.9693671,-5.44882 4.383482,-5.57701 1.2394805,-0.11235 1.7972848,2.21244 2.1325138,3.73824 0.335229,1.5258 0.285022,3.63504 -0.311021,4.92379 z"
         inkscape:transform-center-y="0.71539984"
         inkscape:transform-center-x="-4.6467179"
         style="opacity:1;fill:url(#linearGradient5293);fill-opacity:1;fill-rule:nonzero;stroke:none;stroke-width:0.40000001;stroke-linecap:round;stroke-linejoin:round;stroke-miterlimit:4;stroke-dasharray:none;stroke-opacity:1;paint-order:markers fill stroke"
         transform="matrix(1.0396755,-0.60025696,0.60025696,1.0396755,-107.76378,-6.3537773)" />
      <path
         style="opacity:1;fill:url(#linearGradient5295);fill-opacity:1;fill-rule:nonzero;stroke:none;stroke-width:0.48020557;stroke-linecap:round;stroke-linejoin:round;stroke-miterlimit:4;stroke-dasharray:none;stroke-opacity:1;paint-order:markers fill stroke"
         inkscape:transform-center-x="-4.6467179"
         inkscape:transform-center-y="0.71539984"
         d="m 84.137526,288.53331 c 0.134885,1.48802 -1.45784,4.49792 -1.719813,4.75989 -1.205352,1.20535 -3.792734,3.83923 -5.339925,3.12362 -1.356098,-0.62719 -1.244832,-5.87228 -1.243251,-7.36639 0.0018,-1.70462 -0.183514,-7.44739 1.20976,-8.4295 1.221219,-0.86081 3.196626,1.22139 4.461027,2.6065 1.264401,1.38512 2.478288,3.60818 2.632178,5.30584 z"
         id="path5289"
         inkscape:connector-curvature="0"
         sodipodi:nodetypes="ssccczs" />
    </g>
    <path
       style="opacity:1;fill:url(#linearGradient5299);fill-opacity:1;fill-rule:nonzero;stroke:none;stroke-width:0.43847644;stroke-linecap:round;stroke-linejoin:round;stroke-miterlimit:4;stroke-dasharray:none;stroke-opacity:1;paint-order:markers fill stroke"
       inkscape:transform-center-x="-4.2429287"
       inkscape:transform-center-y="0.65323288"
       d="m 41.010417,281.70576 c 0.958631,0.97593 0.511539,5.45381 0.499304,6.82176 -0.01223,1.36795 0.354714,5.85311 -0.621225,6.81175 -0.975937,0.95863 -1.159339,0.61175 -2.527277,0.59953 -1.367949,-0.0122 -1.683833,0.25449 -2.642465,-0.72144 -0.958637,-0.97594 -0.511543,-5.45383 -0.499309,-6.82177 0.01223,-1.36795 -0.354713,-5.85312 0.621225,-6.81175 0.975937,-0.95863 1.167616,-0.75374 2.535554,-0.74153 1.367949,0.0122 1.675556,-0.11249 2.634193,0.86345 z"
       id="path5297"
       inkscape:connector-curvature="0"
       sodipodi:nodetypes="ccsscsssc" />
    <path
       sodipodi:nodetypes="ccsscsssc"
       inkscape:connector-curvature="0"
       id="path5310"
       d="m 48.947918,281.70576 c 0.958631,0.97593 0.511539,5.45381 0.499304,6.82176 -0.01223,1.36795 0.354714,5.85311 -0.621225,6.81175 -0.975937,0.95863 -1.159339,0.61175 -2.527277,0.59953 -1.367949,-0.0122 -1.683833,0.25449 -2.642465,-0.72144 -0.958637,-0.97594 -0.511543,-5.45383 -0.499309,-6.82177 0.01223,-1.36795 -0.354713,-5.85312 0.621225,-6.81175 0.975937,-0.95863 1.167616,-0.75374 2.535554,-0.74153 1.367949,0.0122 1.675556,-0.11249 2.634193,0.86345 z"
       inkscape:transform-center-y="0.65323288"
       inkscape:transform-center-x="-4.2429287"
       style="opacity:1;fill:url(#linearGradient5312);fill-opacity:1;fill-rule:nonzero;stroke:none;stroke-width:0.43847644;stroke-linecap:round;stroke-linejoin:round;stroke-miterlimit:4;stroke-dasharray:none;stroke-opacity:1;paint-order:markers fill stroke" />
    <path
       sodipodi:nodetypes="ccsscsssc"
       inkscape:connector-curvature="0"
       id="path5328"
       d="m 55.562501,281.12498 c 0.958631,0.97593 0.511539,6.03459 0.499304,7.40254 -0.01223,1.36795 0.346103,5.84442 -0.621225,6.81175 -0.337797,0.3378 -0.936413,0.343 -1.204361,0.34061 -0.261218,-0.002 -0.859845,-0.003 -1.319552,-0.46252 -0.958637,-0.97594 -0.511543,-5.45383 -0.499309,-6.82177 0.01223,-1.36795 -0.346098,-6.29544 0.621225,-7.26277 0.272423,-0.27242 0.407251,-0.29051 1.212641,-0.29051 0.517547,0 1.046693,0.0181 1.311277,0.28267 z"
       inkscape:transform-center-y="0.65323288"
       inkscape:transform-center-x="-4.2429287"
       style="opacity:1;fill:url(#linearGradient5330);fill-opacity:1;fill-rule:nonzero;stroke:none;stroke-width:0.43847644;stroke-linecap:round;stroke-linejoin:round;stroke-miterlimit:4;stroke-dasharray:none;stroke-opacity:1;paint-order:markers fill stroke" />
    <path
       style="opacity:1;fill:url(#linearGradient5264-3);fill-opacity:1;fill-rule:nonzero;stroke:none;stroke-width:0.48020557;stroke-linecap:round;stroke-linejoin:round;stroke-miterlimit:4;stroke-dasharray:none;stroke-opacity:1;paint-order:markers fill stroke"
       inkscape:transform-center-x="-4.6467179"
       inkscape:transform-center-y="0.71539984"
       d="m 66.594707,288.53331 c 0.134884,1.48802 -1.906688,4.49792 -2.168661,4.75989 -1.205351,1.20535 -3.792734,3.83923 -5.339925,3.12362 -1.356097,-0.62719 -1.244832,-5.87228 -1.24325,-7.36639 0.0018,-1.70462 -0.183514,-7.44739 1.209759,-8.4295 1.221219,-0.86081 3.196626,1.22139 4.461027,2.60651 1.264402,1.38511 3.161344,4.24754 3.081025,5.30583 -1e-6,2e-5 2.5e-5,4e-5 2.5e-5,4e-5 z"
       id="path5271-5"
       inkscape:connector-curvature="0"
       sodipodi:nodetypes="csccczsc" />
    <g
       id="g5118"
       transform="translate(-101.60001,-33.866675)">
      <path
         inkscape:transform-center-y="0.65323288"
         transform="matrix(0.94932935,-0.54809558,0.54809558,0.94932935,-56.105202,19.208442)"
         inkscape:transform-center-x="-4.2429287"
         d="m 16.984203,286.314 c 0.312203,1.20827 -2.083489,4.54201 -2.717109,5.61715 -0.63362,1.07515 -2.389518,4.78594 -3.597796,5.09814 -1.2082771,0.3122 -4.5420146,-2.08349 -5.6171572,-2.71711 -1.0751426,-0.63362 -4.78593378,-2.38952 -5.09813759,-3.59779 -0.31220381,-1.20828 2.08348899,-4.54202 2.71710869,-5.61716 0.6336197,-1.07514 2.389518,-4.78594 3.5977955,-5.09814 1.2082774,-0.3122 4.5420146,2.08349 5.6171576,2.71711 1.075143,0.63362 4.785934,2.38952 5.098138,3.5978 z"
         inkscape:randomized="0"
         inkscape:rounded="0.2"
         inkscape:flatsided="false"
         sodipodi:arg2="0.53254107"
         sodipodi:arg1="-0.25285709"
         sodipodi:r2="6.7299576"
         sodipodi:r1="8.7947588"
         sodipodi:cy="288.51419"
         sodipodi:cx="8.4691029"
         sodipodi:sides="4"
         id="path4525"
         style="opacity:1;fill:url(#linearGradient4527);fill-opacity:1;fill-rule:nonzero;stroke:none;stroke-width:0.40000001;stroke-linecap:round;stroke-linejoin:round;stroke-miterlimit:4;stroke-dasharray:none;stroke-opacity:1;paint-order:markers fill stroke"
         sodipodi:type="star" />
      <path
         d="m 115.35834,283.24166 c 1.61201,1.612 -2.11667,3.01194 -2.11667,5.29166 0,2.27972 3.72867,3.67966 2.11667,5.29167 -1.612,1.61201 -3.01194,-2.11667 -5.29166,-2.11667 -2.27972,0 -3.67966,3.72868 -5.29167,2.11667 -1.61201,-1.612 2.11667,-3.01194 2.11667,-5.29166 0,-2.27972 -3.72868,-3.67966 -2.11667,-5.29167 1.612,-1.61201 3.01194,2.11667 5.29165,2.11667 2.27973,0 3.67967,-3.72868 5.29168,-2.11667 z"
         inkscape:randomized="0"
         inkscape:rounded="0.4"
         inkscape:flatsided="false"
         sodipodi:arg2="-2.6336979e-06"
         sodipodi:arg1="-0.78539816"
         sodipodi:r2="3.1749957"
         sodipodi:r1="7.4835472"
         sodipodi:cy="288.53333"
         sodipodi:cx="110.06667"
         sodipodi:sides="4"
         id="path5114"
         style="opacity:1;fill:#c8e7f7;fill-opacity:1;fill-rule:nonzero;stroke:none;stroke-width:0;stroke-linecap:round;stroke-linejoin:round;stroke-miterlimit:4;stroke-dasharray:none;stroke-opacity:1;paint-order:markers fill stroke"
         sodipodi:type="star" />
    </g>
    <g
       transform="matrix(1.0714289,0,0,1.0714289,-109.46196,-38.292612)"
       id="g4559">
      <path
         style="fill:url(#linearGradient4578);fill-opacity:1;fill-rule:evenodd;stroke:none;stroke-width:0.27275497px;stroke-linecap:butt;stroke-linejoin:miter;stroke-opacity:1"
         d="m 105.74655,281.97154 c -0.26746,0.0535 1.09102,1.90928 0.81826,2.18204 -2.47476,2.47476 -3.90647,-10e-6 -3.90647,7.63713 0,4.2062 2.82336,4.36408 7.17953,4.36408 4.35617,0 7.63714,-0.15788 7.63714,-4.36408 0,-7.63714 -1.88931,-5.16237 -4.36408,-7.63713 -0.54551,-0.54551 1.35563,-2.2482 1.09102,-2.18204 -3.27306,0.81826 -7.09163,-0.27276 -8.4554,0 z"
         id="path4565"
         inkscape:connector-curvature="0"
         sodipodi:nodetypes="ssssssss" />
      <path
         style="fill:#c8e7f7;fill-opacity:1;fill-rule:evenodd;stroke:none;stroke-width:0.21754639px;stroke-linecap:butt;stroke-linejoin:miter;stroke-opacity:1"
         d="m 110.08432,285.39948 c -0.8702,1e-5 -0.87024,0.94061 -0.87019,1.30529 1.3e-4,0.87013 0.16163,2.01382 -0.21755,2.393 l -0.21754,0.21755 c -0.37919,0.37917 -1.52287,0.21767 -2.39301,0.21754 -0.36467,-5e-5 -1.30527,0 -1.30528,0.87019 1e-5,0.87019 0.94061,0.87025 1.30528,0.87019 0.87014,-1.4e-4 2.01382,-0.16162 2.39301,0.21754 l 0.21754,0.21755 c 0.37918,0.37918 0.21768,1.52288 0.21755,2.39301 -5e-5,0.36466 -1e-5,1.30526 0.87019,1.30527 0.87019,-10e-6 0.87024,-0.94061 0.87018,-1.30527 -1.3e-4,-0.87013 -0.16161,-2.01383 0.21755,-2.39301 l 0.21754,-0.21755 c 0.37919,-0.37916 1.52288,-0.21768 2.39302,-0.21754 0.36466,6e-5 1.30526,0 1.30527,-0.87019 -1e-5,-0.87019 -0.94061,-0.87024 -1.30527,-0.87019 -0.87014,1.3e-4 -2.01383,0.16163 -2.39302,-0.21754 l -0.21754,-0.21755 c -0.37916,-0.37918 -0.21768,-1.52287 -0.21755,-2.393 6e-5,-0.36468 1e-5,-1.30528 -0.87018,-1.30529 z"
         id="path4555"
         inkscape:connector-curvature="0" />
    </g>
    <g
       id="g4599"
       transform="matrix(1.0714285,0,0,1.0714285,-92.52857,-38.323519)">
      <path
         sodipodi:nodetypes="ssssssss"
         inkscape:connector-curvature="0"
         id="path4595"
         d="m 105.74655,281.97154 c -0.26746,0.0535 1.09102,1.90928 0.81826,2.18204 -2.47476,2.47476 -3.90647,-10e-6 -3.90647,7.63713 0,4.2062 2.82336,4.36408 7.17953,4.36408 4.35617,0 7.63714,-0.15788 7.63714,-4.36408 0,-7.63714 -1.88931,-5.16237 -4.36408,-7.63713 -0.54551,-0.54551 1.35563,-2.2482 1.09102,-2.18204 -3.27306,0.81826 -7.09163,-0.27276 -8.4554,0 z"
         style="fill:url(#linearGradient4601);fill-opacity:1;fill-rule:evenodd;stroke:none;stroke-width:0.27275497px;stroke-linecap:butt;stroke-linejoin:miter;stroke-opacity:1" />
      <path
         sodipodi:type="star"
         style="opacity:1;fill:#c8e7f7;fill-opacity:1;fill-rule:nonzero;stroke:none;stroke-width:0.40000001;stroke-linecap:round;stroke-linejoin:round;stroke-miterlimit:4;stroke-dasharray:none;stroke-opacity:1;paint-order:markers fill stroke"
         id="path4508-5"
         sodipodi:sides="3"
         sodipodi:cx="8.4691029"
         sodipodi:cy="288.51419"
         sodipodi:r1="7.5965524"
         sodipodi:r2="4.860641"
         sodipodi:arg1="0.52465108"
         sodipodi:arg2="1.4804029"
         inkscape:flatsided="false"
         inkscape:rounded="0.2"
         inkscape:randomized="0"
         d="m 15.04391,292.31939 c -0.522438,1.1296 -4.891474,1.03691 -6.1360352,1.0356 -1.4199122,-0.001 -6.2035029,0.11112 -7.0215726,-1.04945 -0.7170431,-1.01724 1.5477422,-4.7546 2.171162,-5.83176 0.7112555,-1.22893 3.0055176,-5.42795 4.4196325,-5.55614 1.2394805,-0.11235 3.3437313,3.71769 3.9648733,4.79616 0.708656,1.23044 3.197985,5.31684 2.60194,6.60559 z"
         inkscape:transform-center-x="-2.4209149"
         transform="matrix(0.54166546,-0.31273072,0.31273072,0.54166546,14.958928,136.60468)"
         inkscape:transform-center-y="0.37272245" />
    </g>
    <g
       id="g9565"
       transform="matrix(1.1223513,0,0,1.1223513,-5.1819092,-33.246176)">
      <g
         style="fill:url(#linearGradient9513);fill-opacity:1"
         id="g9418">
        <path
           style="opacity:1;fill:url(#linearGradient9076);fill-opacity:1;fill-rule:nonzero;stroke:none;stroke-width:0;stroke-linecap:round;stroke-linejoin:round;stroke-miterlimit:4;stroke-dasharray:none;stroke-opacity:1;paint-order:markers fill stroke"
           d="m 36.000949,277.15624 c 0.235723,-0.23572 0.668312,-0.0325 1.000088,0 3.525423,0.34529 7.066057,0.36022 10.623964,0 0.356825,-0.0361 0.822345,-0.2536 1.075948,0 0.266567,0.26657 0,0.68135 0,1.05833 0,0.32857 0.232336,0.56141 0,0.79375 -0.24945,0.24945 -0.705555,10e-6 -1.058333,10e-6 -3.530489,2e-5 -7.060978,-10e-6 -10.591466,-10e-6 -0.350067,0 -0.802666,0.24753 -1.050201,0 -0.240211,-0.24021 0,-0.45404 0,-0.79375 0,-0.36585 -0.258693,-0.79964 0,-1.05833 z"
           id="path9402"
           inkscape:connector-curvature="0"
           sodipodi:nodetypes="sssssssssss" />
        <path
           sodipodi:nodetypes="sssssssssss"
           inkscape:connector-curvature="0"
           id="path9489"
           d="m 36.000949,274.77498 c 0.235723,-0.23572 0.668312,-0.0325 1.000088,0 3.525423,0.34529 7.066057,0.36022 10.623964,0 0.356825,-0.0361 0.822345,-0.2536 1.075948,0 0.266567,0.26657 0,0.68135 0,1.05833 0,0.32857 0.232336,0.56141 0,0.79375 -0.24945,0.24945 -0.705555,1e-5 -1.058333,1e-5 -3.530489,2e-5 -7.060978,-1e-5 -10.591466,-1e-5 -0.350067,0 -0.802666,0.24753 -1.050201,0 -0.240211,-0.24021 0,-0.45404 0,-0.79375 0,-0.36585 -0.258693,-0.79964 0,-1.05833 z"
           style="opacity:1;fill:url(#linearGradient9078);fill-opacity:1;fill-rule:nonzero;stroke:none;stroke-width:0;stroke-linecap:round;stroke-linejoin:round;stroke-miterlimit:4;stroke-dasharray:none;stroke-opacity:1;paint-order:markers fill stroke" />
        <path
           style="opacity:1;fill:url(#linearGradient9080);fill-opacity:1;fill-rule:nonzero;stroke:none;stroke-width:0;stroke-linecap:round;stroke-linejoin:round;stroke-miterlimit:4;stroke-dasharray:none;stroke-opacity:1;paint-order:markers fill stroke"
           d="m 36.000949,268.95414 c 0.235723,-0.23572 0.668312,-0.0325 1.000088,0 3.525423,0.34529 7.066057,0.36022 10.623964,0 0.356825,-0.0361 0.822345,-0.2536 1.075948,0 0.266567,0.26657 0,2.53344 0,2.91042 0,0.32857 0.232336,2.41349 0,2.64583 -0.24945,0.24945 -0.705555,1e-5 -1.058333,1e-5 -3.530489,2e-5 -7.060978,-1e-5 -10.591466,-1e-5 -0.350067,0 -0.802666,0.24753 -1.050201,0 -0.240211,-0.24021 0,-2.30612 0,-2.64583 0,-0.36585 -0.258693,-2.65173 0,-2.91042 z"
           id="path9493"
           inkscape:connector-curvature="0"
           sodipodi:nodetypes="sssssssssss" />
        <path
           sodipodi:nodetypes="sssssssssss"
           inkscape:connector-curvature="0"
           id="path9497"
           d="m 36.000949,266.83748 c 0.235723,-0.23572 0.668312,-0.0325 1.000088,0 3.525423,0.34529 7.066057,0.36022 10.623964,0 0.356825,-0.0361 0.822345,-0.2536 1.075948,0 0.266567,0.26657 0,0.68135 0,1.05833 0,0.32857 0.232336,0.56141 0,0.79375 -0.24945,0.24945 -0.705555,1e-5 -1.058333,1e-5 -3.530489,2e-5 -7.060978,-1e-5 -10.591466,-1e-5 -0.350067,0 -0.802666,0.24753 -1.050201,0 -0.240211,-0.24021 0,-0.45404 0,-0.79375 0,-0.36585 -0.258693,-0.79964 0,-1.05833 z"
           style="opacity:1;fill:url(#linearGradient9082);fill-opacity:1;fill-rule:nonzero;stroke:none;stroke-width:0;stroke-linecap:round;stroke-linejoin:round;stroke-miterlimit:4;stroke-dasharray:none;stroke-opacity:1;paint-order:markers fill stroke" />
        <path
           style="opacity:1;fill:url(#linearGradient9084);fill-opacity:1;fill-rule:nonzero;stroke:none;stroke-width:0;stroke-linecap:round;stroke-linejoin:round;stroke-miterlimit:4;stroke-dasharray:none;stroke-opacity:1;paint-order:markers fill stroke"
           d="m 36.000949,264.45623 c 0.235723,-0.23572 0.668312,-0.0325 1.000088,0 3.525423,0.34529 7.066057,0.36022 10.623964,0 0.356825,-0.0361 0.822345,-0.2536 1.075948,0 0.266567,0.26657 0,0.68135 0,1.05833 0,0.32857 0.232336,0.56141 0,0.79375 -0.24945,0.24945 -0.705555,10e-6 -1.058333,10e-6 -3.530489,2e-5 -7.060978,-10e-6 -10.591466,-10e-6 -0.350067,0 -0.802666,0.24753 -1.050201,0 -0.240211,-0.24021 0,-0.45404 0,-0.79375 0,-0.36585 -0.258693,-0.79964 0,-1.05833 z"
           id="path9501"
           inkscape:connector-curvature="0"
           sodipodi:nodetypes="sssssssssss" />
      </g>
      <path
         inkscape:transform-center-x="-0.1889881"
         inkscape:connector-curvature="0"
         id="path4555-3"
         d="m 42.362741,266.84336 c -0.870199,10e-6 -0.87024,0.94061 -0.87019,1.30529 1.31e-4,0.87013 0.16163,2.01382 -0.21755,2.393 l -0.217539,0.21755 c -0.37919,0.37917 -1.522871,0.21767 -2.393011,0.21754 -0.364669,-5e-5 -1.30527,0 -1.30528,0.87019 10e-6,0.87019 0.940611,0.87025 1.30528,0.87019 0.87014,-1.4e-4 2.013821,-0.16162 2.393011,0.21754 l 0.217539,0.21755 c 0.37918,0.37918 0.217681,1.52288 0.21755,2.39301 -5e-5,0.36466 -9e-6,1.30526 0.87019,1.30527 0.87019,-10e-6 0.87024,-0.94061 0.870181,-1.30527 -1.31e-4,-0.87013 -0.161611,-2.01383 0.21755,-2.39301 l 0.217539,-0.21755 c 0.37919,-0.37916 1.52288,-0.21768 2.39302,-0.21754 0.364661,6e-5 1.30526,0 1.30527,-0.87019 -1e-5,-0.87019 -0.940609,-0.87024 -1.30527,-0.87019 -0.87014,1.3e-4 -2.01383,0.16163 -2.39302,-0.21754 l -0.217539,-0.21755 c -0.379161,-0.37918 -0.217681,-1.52287 -0.21755,-2.393 5.9e-5,-0.36468 9e-6,-1.30528 -0.870181,-1.30529 z"
         style="fill:#c8e7f7;fill-opacity:1;fill-rule:evenodd;stroke:none;stroke-width:0.21754639px;stroke-linecap:butt;stroke-linejoin:miter;stroke-opacity:1" />
    </g>
    <path
       inkscape:connector-curvature="0"
       id="rect9582"
       d="m -27.206446,267.36665 v 8.46667 h 8.466667 v -6.30763 l -2.14974,-2.15904 z m 2.38125,0.26458 h 3.704167 v 1.85209 h -3.704167 z m 2.38125,0.26459 v 1.32291 h 0.79375 v -1.32291 z m -3.704167,4.7625 h 6.350001 v 2.11666 h -6.350001 z"
       style="opacity:1;fill:#9ad8ff;fill-opacity:1;fill-rule:nonzero;stroke:none;stroke-width:0;stroke-linecap:round;stroke-linejoin:round;stroke-miterlimit:4;stroke-dasharray:none;stroke-opacity:1;paint-order:markers fill stroke" />
    <g
       id="g5978"
       transform="matrix(1.1223513,0,0,1.1223513,-7.2537253,-33.246176)">
      <path
         style="opacity:1;fill:url(#linearGradient9527);fill-opacity:1;fill-rule:nonzero;stroke:none;stroke-width:0;stroke-linecap:round;stroke-linejoin:round;stroke-miterlimit:4;stroke-dasharray:none;stroke-opacity:1;paint-order:markers fill stroke"
         d="m 52.934283,277.15624 c 0.235723,-0.23572 0.668312,-0.0325 1.000088,0 3.525423,0.34529 7.066057,0.36022 10.623964,0 0.356825,-0.0361 0.822345,-0.2536 1.075948,0 0.266567,0.26657 0,0.68135 0,1.05833 0,0.32857 0.232336,0.56141 0,0.79375 -0.24945,0.24945 -0.705555,10e-6 -1.058333,10e-6 -3.530489,2e-5 -7.060978,-10e-6 -10.591466,-10e-6 -0.350067,0 -0.802666,0.24753 -1.050201,0 -0.240211,-0.24021 0,-0.45404 0,-0.79375 0,-0.36585 -0.258693,-0.79964 0,-1.05833 z"
         id="path9515"
         inkscape:connector-curvature="0"
         sodipodi:nodetypes="sssssssssss" />
      <path
         sodipodi:nodetypes="sssssssssss"
         inkscape:connector-curvature="0"
         id="path9517"
         d="m 52.934283,274.77498 c 0.235723,-0.23572 0.668312,-0.0325 1.000088,0 3.525423,0.34529 7.066057,0.36022 10.623964,0 0.356825,-0.0361 0.822345,-0.2536 1.075948,0 0.266567,0.26657 0,0.68135 0,1.05833 0,0.32857 0.232336,0.56141 0,0.79375 -0.24945,0.24945 -0.705555,1e-5 -1.058333,1e-5 -3.530489,2e-5 -7.060978,-1e-5 -10.591466,-1e-5 -0.350067,0 -0.802666,0.24753 -1.050201,0 -0.240211,-0.24021 0,-0.45404 0,-0.79375 0,-0.36585 -0.258693,-0.79964 0,-1.05833 z"
         style="opacity:1;fill:url(#linearGradient9529);fill-opacity:1;fill-rule:nonzero;stroke:none;stroke-width:0;stroke-linecap:round;stroke-linejoin:round;stroke-miterlimit:4;stroke-dasharray:none;stroke-opacity:1;paint-order:markers fill stroke" />
      <path
         style="opacity:1;fill:url(#linearGradient9531);fill-opacity:1;fill-rule:nonzero;stroke:none;stroke-width:0;stroke-linecap:round;stroke-linejoin:round;stroke-miterlimit:4;stroke-dasharray:none;stroke-opacity:1;paint-order:markers fill stroke"
         d="m 52.934283,268.95414 c 0.235723,-0.23572 0.668312,-0.0325 1.000088,0 3.525423,0.34529 7.066057,0.36022 10.623964,0 0.356825,-0.0361 0.822345,-0.2536 1.075948,0 0.266567,0.26657 0,2.53344 0,2.91042 0,0.32857 0.232336,2.41349 0,2.64583 -0.24945,0.24945 -0.705555,1e-5 -1.058333,1e-5 -3.530489,2e-5 -7.060978,-1e-5 -10.591466,-1e-5 -0.350067,0 -0.802666,0.24753 -1.050201,0 -0.240211,-0.24021 0,-2.30612 0,-2.64583 0,-0.36585 -0.258693,-2.65173 0,-2.91042 z"
         id="path9519"
         inkscape:connector-curvature="0"
         sodipodi:nodetypes="sssssssssss" />
      <path
         sodipodi:nodetypes="sssssssssss"
         inkscape:connector-curvature="0"
         id="path9521"
         d="m 52.934283,266.83748 c 0.235723,-0.23572 0.668312,-0.0325 1.000088,0 3.525423,0.34529 7.066057,0.36022 10.623964,0 0.356825,-0.0361 0.822345,-0.2536 1.075948,0 0.266567,0.26657 0,0.68135 0,1.05833 0,0.32857 0.232336,0.56141 0,0.79375 -0.24945,0.24945 -0.705555,1e-5 -1.058333,1e-5 -3.530489,2e-5 -7.060978,-1e-5 -10.591466,-1e-5 -0.350067,0 -0.802666,0.24753 -1.050201,0 -0.240211,-0.24021 0,-0.45404 0,-0.79375 0,-0.36585 -0.258693,-0.79964 0,-1.05833 z"
         style="opacity:1;fill:url(#linearGradient9533);fill-opacity:1;fill-rule:nonzero;stroke:none;stroke-width:0;stroke-linecap:round;stroke-linejoin:round;stroke-miterlimit:4;stroke-dasharray:none;stroke-opacity:1;paint-order:markers fill stroke" />
      <path
         style="opacity:1;fill:url(#linearGradient9535);fill-opacity:1;fill-rule:nonzero;stroke:none;stroke-width:0;stroke-linecap:round;stroke-linejoin:round;stroke-miterlimit:4;stroke-dasharray:none;stroke-opacity:1;paint-order:markers fill stroke"
         d="m 52.934283,264.45623 c 0.235723,-0.23572 0.668312,-0.0325 1.000088,0 3.525423,0.34529 7.066057,0.36022 10.623964,0 0.356825,-0.0361 0.822345,-0.2536 1.075948,0 0.266567,0.26657 0,0.68135 0,1.05833 0,0.32857 0.232336,0.56141 0,0.79375 -0.24945,0.24945 -0.705555,10e-6 -1.058333,10e-6 -3.530489,2e-5 -7.060978,-10e-6 -10.591466,-10e-6 -0.350067,0 -0.802666,0.24753 -1.050201,0 -0.240211,-0.24021 0,-0.45404 0,-0.79375 0,-0.36585 -0.258693,-0.79964 0,-1.05833 z"
         id="path9523"
         inkscape:connector-curvature="0"
         sodipodi:nodetypes="sssssssssss" />
      <path
         style="fill:#c8e7f7;fill-opacity:1;fill-rule:evenodd;stroke:none;stroke-width:0.48911703px;stroke-linecap:butt;stroke-linejoin:miter;stroke-opacity:1"
         d="m 60.250728,273.06286 c 0.613555,0.22102 -0.07783,2.76788 0.489116,2.44559 2.287659,-1.30046 4.078315,-2.1949 3.912938,-3.91295 -0.142585,-1.48128 -1.704328,-2.95376 -3.912938,-3.91292 -0.682692,-0.29649 0.633629,2.31868 -0.489116,2.44557 -6.296737,0.71169 -5.38029,7.33675 -4.891174,7.33675 0.978236,0 1.459559,-5.63828 4.891174,-4.40204 z"
         id="path4564"
         inkscape:connector-curvature="0"
         sodipodi:nodetypes="sssssss" />
    </g>
    <g
       id="g4650"
       transform="matrix(1.1395402,0,0,1.1395402,27.679018,-37.917609)">
      <g
         id="g4646"
         style="fill:url(#linearGradient4662);fill-opacity:1;stroke:url(#linearGradient4672)"
         transform="translate(0,-0.52916242)">
        <path
           sodipodi:nodetypes="sssssccss"
           inkscape:connector-curvature="0"
           id="path4636"
           d="m 44.461772,276.36248 c 0.294512,0.15618 0.488336,0.0663 0.529156,-0.26458 0.363602,-2.9471 0.07869,-5.64008 -0.264573,-10.31875 -0.01936,-0.26388 -1.1e-5,-0.52917 0.264573,-0.52917 h 0.529166 c 0.264584,0 0.246879,0.26518 0.264594,0.52917 -0.178103,4.20446 0.728322,8.45848 0,12.17083 -0.282304,1.17473 -7.464972,2.3858 -7.408344,-0.26458 0.02948,-1.37979 3.015005,-2.95115 6.085428,-1.32292 z"
           style="opacity:1;fill:url(#linearGradient4686);fill-opacity:1;fill-rule:nonzero;stroke:url(#linearGradient4688);stroke-width:0;stroke-linecap:round;stroke-linejoin:round;stroke-miterlimit:4;stroke-dasharray:none;stroke-opacity:1;paint-order:markers fill stroke" />
      </g>
      <path
         style="fill:#c8e7f7;fill-opacity:1;fill-rule:evenodd;stroke:none;stroke-width:0.21754639px;stroke-linecap:butt;stroke-linejoin:miter;stroke-opacity:1"
         d="m 42.362741,266.84336 c -0.870199,10e-6 -0.87024,0.94061 -0.87019,1.30529 1.31e-4,0.87013 0.16163,2.01382 -0.21755,2.393 l -0.217539,0.21755 c -0.37919,0.37917 -1.522871,0.21767 -2.393011,0.21754 -0.364669,-5e-5 -1.30527,0 -1.30528,0.87019 10e-6,0.87019 0.940611,0.87025 1.30528,0.87019 0.87014,-1.4e-4 2.013821,-0.16162 2.393011,0.21754 l 0.217539,0.21755 c 0.37918,0.37918 0.217681,1.52288 0.21755,2.39301 -5e-5,0.36466 -9e-6,1.30526 0.87019,1.30527 0.87019,-10e-6 0.87024,-0.94061 0.870181,-1.30527 -1.31e-4,-0.87013 -0.161611,-2.01383 0.21755,-2.39301 l 0.217539,-0.21755 c 0.37919,-0.37916 1.52288,-0.21768 2.39302,-0.21754 0.364661,6e-5 1.30526,0 1.30527,-0.87019 -1e-5,-0.87019 -0.940609,-0.87024 -1.30527,-0.87019 -0.87014,1.3e-4 -2.01383,0.16163 -2.39302,-0.21754 l -0.217539,-0.21755 c -0.379161,-0.37918 -0.217681,-1.52287 -0.21755,-2.393 5.9e-5,-0.36468 9e-6,-1.30528 -0.870181,-1.30529 z"
         id="path4648"
         inkscape:connector-curvature="0"
         inkscape:transform-center-x="-0.1889881" />
    </g>
    <path
       style="fill:url(#linearGradient14540);fill-opacity:1;fill-rule:evenodd;stroke:none;stroke-width:0.26458335px;stroke-linecap:butt;stroke-linejoin:miter;stroke-opacity:1"
       d="m 42.862501,247.25832 c -1.169003,0 -2.116667,0.94766 -2.116667,2.11666 0,1.16901 0.947664,2.11667 2.116667,2.11667 1.169003,0 2.116667,-0.94766 2.116667,-2.11667 0,-1.169 -0.947664,-2.11666 -2.116667,-2.11666 z m -0.08785,5.22914 c -1.445843,0.0726 -4.812482,3.71078 -3.351734,3.50211 1.852084,-0.26459 1.5875,0.26458 1.852084,0.79375 0.304977,0.60995 0.495979,1.42412 0,3.175 -0.233318,0.82364 -1.058334,1.38851 -1.058334,2.11666 0,1.05834 5.668185,0.94068 5.820834,0 0.119936,-0.73908 -0.654124,-1.17335 -0.79375,-1.85208 -0.307099,-1.49284 -0.811091,-2.07615 -0.79375,-3.43958 0.01849,-1.45442 0.348213,-3.86278 -1.058333,-4.23334 -0.203843,-0.0537 -0.410467,-0.0729 -0.617017,-0.0625 z"
       id="path14526"
       inkscape:connector-curvature="0"
       sodipodi:nodetypes="sssssssssssssss" />
    <g
       id="g14558"
       transform="matrix(0.98974136,0.57142744,-0.57142744,0.98974136,145.78409,-11.901723)">
      <path
         d="m 25.4,247.25832 c 1.197279,-0.0146 1.010444,1.65845 2.116667,2.11666 1.153842,0.47794 2.228006,-0.81909 3.121821,0.0532 0.856928,0.83628 -0.458212,1.88719 0,2.99342 0.477936,1.15384 2.154624,0.99625 2.169853,2.24507 0.0146,1.19727 -1.658454,1.01044 -2.116667,2.11666 -0.477937,1.15384 0.819094,2.22801 -0.05318,3.12182 -0.83628,0.85693 -1.887196,-0.45821 -2.99342,0 -1.153842,0.47794 -0.996251,2.15463 -2.245067,2.16986 -1.197279,0.0146 -1.010444,-1.65846 -2.116667,-2.11667 -1.153842,-0.47794 -2.228005,0.81909 -3.121821,-0.0532 -0.856928,-0.83628 0.458212,-1.88719 0,-2.99341 -0.477936,-1.15385 -2.154624,-0.99626 -2.169853,-2.24507 -0.0146,-1.19728 1.658454,-1.01045 2.116667,-2.11667 0.477937,-1.15384 -0.819094,-2.228 0.05318,-3.12182 0.836279,-0.85693 1.887195,0.45821 2.993419,0 1.153842,-0.47794 0.996251,-2.15462 2.245067,-2.16985 z"
         inkscape:randomized="0"
         inkscape:rounded="0.4"
         inkscape:flatsided="false"
         sodipodi:arg2="-1.1902905"
         sodipodi:arg1="-1.5707965"
         sodipodi:r2="5.6993046"
         sodipodi:r1="7.4083395"
         sodipodi:cy="254.66666"
         sodipodi:cx="25.400002"
         sodipodi:sides="8"
         id="path14542"
         style="opacity:1;fill:url(#linearGradient14550);fill-opacity:1;fill-rule:nonzero;stroke:none;stroke-width:0;stroke-linecap:round;stroke-linejoin:round;stroke-miterlimit:4;stroke-dasharray:none;stroke-opacity:1;paint-order:markers fill stroke"
         sodipodi:type="star" />
      <circle
         r="3.1750002"
         cy="254.66666"
         cx="25.400002"
         id="path14554"
         style="opacity:1;fill:#c8e7f7;fill-opacity:1;fill-rule:nonzero;stroke:none;stroke-width:0;stroke-linecap:round;stroke-linejoin:round;stroke-miterlimit:4;stroke-dasharray:none;stroke-opacity:1;paint-order:markers fill stroke" />
    </g>
    <text
       xml:space="preserve"
       style="font-style:normal;font-variant:normal;font-weight:normal;font-stretch:normal;font-size:2.11666679px;line-height:125%;font-family:'TeX Gyre Bonum Math';-inkscape-font-specification:'TeX Gyre Bonum Math';letter-spacing:0px;word-spacing:0px;fill:#000000;fill-opacity:1;stroke:none;stroke-width:0.26458335px;stroke-linecap:butt;stroke-linejoin:miter;stroke-opacity:1"
       x="74.083336"
       y="254.84326"
       id="text15201"><tspan
         sodipodi:role="line"
         id="tspan15199"
         x="74.083336"
         y="254.84326"
         style="font-size:2.11666679px;stroke-width:0.26458335px">+ about</tspan></text>
    <path
       style="fill:url(#linearGradient15213);fill-opacity:1;fill-rule:evenodd;stroke:none;stroke-width:0.19623108px;stroke-linecap:butt;stroke-linejoin:miter;stroke-opacity:1"
       d="m 61.4247,257.49515 c 1.554751,1.55476 3.79433,-1.37747 5.539655,-3.25285 0.420778,-0.41172 0.497625,-0.42281 0.07181,-0.84862 l -0.968404,-0.96839 c -0.323764,-0.32378 -0.503126,-0.13048 -0.802938,0.16666 -1.905815,1.88822 -2.971332,2.72094 -4.509699,1.18098 -0.184907,-0.18508 -0.370016,-0.37001 -0.555024,-0.55502 -1.584342,-1.58432 -0.656144,-2.66616 1.350163,-4.67993 0.347212,-0.30282 0.305637,-0.32455 -0.01738,-0.64756 l -0.979243,-0.97926 c -0.475528,-0.47553 -0.491461,-0.17835 -0.799292,0.172 -1.584863,1.80692 -4.655866,4.08578 -2.745646,5.99599 1.049454,1.04946 -4.100277,5.09799 -5.743369,6.63901 -0.29653,0.25102 -0.28236,0.26645 -0.0086,0.54009 l 2.233106,2.23312 c 0.236632,0.27982 0.270664,0.27421 0.485162,0.0526 1.567758,-1.6495 5.879618,-6.61893 7.449803,-5.04876 z"
       id="path15205"
       inkscape:connector-curvature="0"
       sodipodi:nodetypes="cccccssccccccccccc" />
  </g>
</svg>
