<?xml version="1.0" encoding="UTF-8" standalone="no"?>
<!-- Created with Inkscape (http://www.inkscape.org/) -->

<svg
   xmlns:dc="http://purl.org/dc/elements/1.1/"
   xmlns:cc="http://creativecommons.org/ns#"
   xmlns:rdf="http://www.w3.org/1999/02/22-rdf-syntax-ns#"
   xmlns:svg="http://www.w3.org/2000/svg"
   xmlns="http://www.w3.org/2000/svg"
   xmlns:xlink="http://www.w3.org/1999/xlink"
   xmlns:sodipodi="http://sodipodi.sourceforge.net/DTD/sodipodi-0.dtd"
   xmlns:inkscape="http://www.inkscape.org/namespaces/inkscape"
   width="64"
   height="64"
   viewBox="0 0 16.933333 16.933333"
   version="1.1"
   id="svg8"
   inkscape:version="0.92.1 r15371"
   sodipodi:docname="clear-remaining.svg"
   inkscape:export-filename="/home/martin/Programovani/Java/java8-2/jmop/jmop/src/main/resources/cz/martlin/jmop/gui/img/about.png"
   inkscape:export-xdpi="96"
   inkscape:export-ydpi="96">
  <defs
     id="defs2">
    <linearGradient
       inkscape:collect="always"
       id="linearGradient4571">
      <stop
         style="stop-color:#9ad8ff;stop-opacity:1"
         offset="0"
         id="stop4567" />
      <stop
         style="stop-color:#3b82ac;stop-opacity:1"
         offset="1"
         id="stop4569" />
    </linearGradient>
    <linearGradient
       inkscape:collect="always"
       xlink:href="#linearGradient4571"
       id="linearGradient4627"
       gradientUnits="userSpaceOnUse"
       x1="6.4697509"
       y1="295.50342"
       x2="13.632477"
       y2="283.0972" />
    <mask
       maskUnits="userSpaceOnUse"
       id="mask4623">
      <path
         inkscape:transform-center-y="0.71539984"
         transform="matrix(1.0396755,-0.60025694,0.60025694,1.0396755,-174.84401,-6.3441742)"
         inkscape:transform-center-x="-4.6467179"
         d="m 15.04391,292.31939 c -0.522438,1.1296 -4.891474,1.03691 -6.1360352,1.0356 -1.4199122,-0.001 -6.2035029,0.11112 -7.0215726,-1.04945 -0.7170431,-1.01724 1.5477422,-4.7546 2.171162,-5.83176 0.7112555,-1.22893 3.0055176,-5.42795 4.4196325,-5.55614 1.2394805,-0.11235 3.3437313,3.71769 3.9648733,4.79616 0.708656,1.23044 3.197985,5.31684 2.60194,6.60559 z"
         inkscape:randomized="0"
         inkscape:rounded="0.2"
         inkscape:flatsided="false"
         sodipodi:arg2="1.4804029"
         sodipodi:arg1="0.52465108"
         sodipodi:r2="4.860641"
         sodipodi:r1="7.5965524"
         sodipodi:cy="288.51419"
         sodipodi:cx="8.4691029"
         sodipodi:sides="3"
         id="path4625"
         style="opacity:1;fill:url(#linearGradient4627);fill-opacity:1;fill-rule:nonzero;stroke:none;stroke-width:0.40000001;stroke-linecap:round;stroke-linejoin:round;stroke-miterlimit:4;stroke-dasharray:none;stroke-opacity:1;paint-order:markers fill stroke"
         sodipodi:type="star" />
    </mask>
    <linearGradient
       inkscape:collect="always"
       xlink:href="#linearGradient4571"
       id="linearGradient4711"
       gradientUnits="userSpaceOnUse"
       x1="42.333336"
       y1="279.00833"
       x2="42.333336"
       y2="264.19165" />
    <linearGradient
       inkscape:collect="always"
       xlink:href="#linearGradient4571"
       id="linearGradient5590"
       gradientUnits="userSpaceOnUse"
       x1="42.333336"
       y1="279.00833"
       x2="42.333336"
       y2="264.19165" />
    <linearGradient
       inkscape:collect="always"
       xlink:href="#linearGradient4571"
       id="linearGradient5592"
       gradientUnits="userSpaceOnUse"
       x1="42.333336"
       y1="279.00833"
       x2="42.333336"
       y2="264.19165" />
    <linearGradient
       inkscape:collect="always"
       xlink:href="#linearGradient4571"
       id="linearGradient5594"
       gradientUnits="userSpaceOnUse"
       x1="42.333336"
       y1="279.00833"
       x2="42.333336"
       y2="264.19165" />
    <linearGradient
       inkscape:collect="always"
       xlink:href="#linearGradient4571"
       id="linearGradient5596"
       gradientUnits="userSpaceOnUse"
       x1="42.333336"
       y1="279.00833"
       x2="42.333336"
       y2="264.19165" />
    <linearGradient
       inkscape:collect="always"
       xlink:href="#linearGradient4571"
       id="linearGradient5598"
       gradientUnits="userSpaceOnUse"
       x1="42.333336"
       y1="279.00833"
       x2="42.333336"
       y2="264.19165" />
  </defs>
  <sodipodi:namedview
     id="base"
     pagecolor="#ffffff"
     bordercolor="#666666"
     borderopacity="1.0"
     inkscape:pageopacity="0.0"
     inkscape:pageshadow="2"
     inkscape:zoom="8.0000002"
     inkscape:cx="19.14091"
     inkscape:cy="34.965739"
     inkscape:document-units="px"
     inkscape:current-layer="layer1"
     showgrid="true"
     units="px"
     inkscape:window-width="1366"
     inkscape:window-height="712"
     inkscape:window-x="0"
     inkscape:window-y="0"
     inkscape:window-maximized="1"
     inkscape:snap-center="false"
     inkscape:snap-object-midpoints="false"
     inkscape:snap-page="true"
     inkscape:snap-global="true"
     inkscape:snap-bbox="true"
     inkscape:snap-nodes="true"
     inkscape:snap-bbox-midpoints="false"
     inkscape:snap-bbox-edge-midpoints="true"
     inkscape:bbox-nodes="true"
     inkscape:bbox-paths="true"
     inkscape:snap-intersection-paths="true"
     inkscape:snap-smooth-nodes="true">
    <inkscape:grid
       type="xygrid"
       id="grid4504" />
  </sodipodi:namedview>
  <metadata
     id="metadata5">
    <rdf:RDF>
      <cc:Work
         rdf:about="">
        <dc:format>image/svg+xml</dc:format>
        <dc:type
           rdf:resource="http://purl.org/dc/dcmitype/StillImage" />
        <dc:title></dc:title>
      </cc:Work>
    </rdf:RDF>
  </metadata>
  <g
     inkscape:label="Vrstva 1"
     inkscape:groupmode="layer"
     id="layer1"
     transform="translate(0,-280.06667)">
    <g
       transform="matrix(1.1223513,0,0,1.1223513,-39.241694,-16.472752)"
       id="g4699">
      <g
         id="g4695"
         style="fill:url(#linearGradient4711);fill-opacity:1">
        <path
           sodipodi:nodetypes="sssssssssss"
           inkscape:connector-curvature="0"
           id="path4685"
           d="m 36.000949,277.15624 c 0.235723,-0.23572 0.668312,-0.0325 1.000088,0 3.525423,0.34529 7.066057,0.36022 10.623964,0 0.356825,-0.0361 0.822345,-0.2536 1.075948,0 0.266567,0.26657 0,0.68135 0,1.05833 0,0.32857 0.232336,0.56141 0,0.79375 -0.24945,0.24945 -0.705555,10e-6 -1.058333,10e-6 -3.530489,2e-5 -7.060978,-10e-6 -10.591466,-10e-6 -0.350067,0 -0.802666,0.24753 -1.050201,0 -0.240211,-0.24021 0,-0.45404 0,-0.79375 0,-0.36585 -0.258693,-0.79964 0,-1.05833 z"
           style="opacity:1;fill:url(#linearGradient5590);fill-opacity:1;fill-rule:nonzero;stroke:none;stroke-width:0;stroke-linecap:round;stroke-linejoin:round;stroke-miterlimit:4;stroke-dasharray:none;stroke-opacity:1;paint-order:markers fill stroke" />
        <path
           style="opacity:1;fill:url(#linearGradient5592);fill-opacity:1;fill-rule:nonzero;stroke:none;stroke-width:0;stroke-linecap:round;stroke-linejoin:round;stroke-miterlimit:4;stroke-dasharray:none;stroke-opacity:1;paint-order:markers fill stroke"
           d="m 36.000949,274.77498 c 0.235723,-0.23572 0.668312,-0.0325 1.000088,0 3.525423,0.34529 7.066057,0.36022 10.623964,0 0.356825,-0.0361 0.822345,-0.2536 1.075948,0 0.266567,0.26657 0,0.68135 0,1.05833 0,0.32857 0.232336,0.56141 0,0.79375 -0.24945,0.24945 -0.705555,1e-5 -1.058333,1e-5 -3.530489,2e-5 -7.060978,-1e-5 -10.591466,-1e-5 -0.350067,0 -0.802666,0.24753 -1.050201,0 -0.240211,-0.24021 0,-0.45404 0,-0.79375 0,-0.36585 -0.258693,-0.79964 0,-1.05833 z"
           id="path4687"
           inkscape:connector-curvature="0"
           sodipodi:nodetypes="sssssssssss" />
        <path
           sodipodi:nodetypes="sssssssssss"
           inkscape:connector-curvature="0"
           id="path4689"
           d="m 36.000949,268.95414 c 0.235723,-0.23572 0.668312,-0.0325 1.000088,0 3.525423,0.34529 7.066057,0.36022 10.623964,0 0.356825,-0.0361 0.822345,-0.2536 1.075948,0 0.266567,0.26657 0,2.53344 0,2.91042 0,0.32857 0.232336,2.41349 0,2.64583 -0.24945,0.24945 -0.705555,1e-5 -1.058333,1e-5 -3.530489,2e-5 -7.060978,-1e-5 -10.591466,-1e-5 -0.350067,0 -0.802666,0.24753 -1.050201,0 -0.240211,-0.24021 0,-2.30612 0,-2.64583 0,-0.36585 -0.258693,-2.65173 0,-2.91042 z"
           style="opacity:1;fill:url(#linearGradient5594);fill-opacity:1;fill-rule:nonzero;stroke:none;stroke-width:0;stroke-linecap:round;stroke-linejoin:round;stroke-miterlimit:4;stroke-dasharray:none;stroke-opacity:1;paint-order:markers fill stroke" />
        <path
           style="opacity:1;fill:url(#linearGradient5596);fill-opacity:1;fill-rule:nonzero;stroke:none;stroke-width:0;stroke-linecap:round;stroke-linejoin:round;stroke-miterlimit:4;stroke-dasharray:none;stroke-opacity:1;paint-order:markers fill stroke"
           d="m 36.000949,266.83748 c 0.235723,-0.23572 0.668312,-0.0325 1.000088,0 3.525423,0.34529 7.066057,0.36022 10.623964,0 0.356825,-0.0361 0.822345,-0.2536 1.075948,0 0.266567,0.26657 0,0.68135 0,1.05833 0,0.32857 0.232336,0.56141 0,0.79375 -0.24945,0.24945 -0.705555,1e-5 -1.058333,1e-5 -3.530489,2e-5 -7.060978,-1e-5 -10.591466,-1e-5 -0.350067,0 -0.802666,0.24753 -1.050201,0 -0.240211,-0.24021 0,-0.45404 0,-0.79375 0,-0.36585 -0.258693,-0.79964 0,-1.05833 z"
           id="path4691"
           inkscape:connector-curvature="0"
           sodipodi:nodetypes="sssssssssss" />
        <path
           sodipodi:nodetypes="sssssssssss"
           inkscape:connector-curvature="0"
           id="path4693"
           d="m 36.000949,264.45623 c 0.235723,-0.23572 0.668312,-0.0325 1.000088,0 3.525423,0.34529 7.066057,0.36022 10.623964,0 0.356825,-0.0361 0.822345,-0.2536 1.075948,0 0.266567,0.26657 0,0.68135 0,1.05833 0,0.32857 0.232336,0.56141 0,0.79375 -0.24945,0.24945 -0.705555,10e-6 -1.058333,10e-6 -3.530489,2e-5 -7.060978,-10e-6 -10.591466,-10e-6 -0.350067,0 -0.802666,0.24753 -1.050201,0 -0.240211,-0.24021 0,-0.45404 0,-0.79375 0,-0.36585 -0.258693,-0.79964 0,-1.05833 z"
           style="opacity:1;fill:url(#linearGradient5598);fill-opacity:1;fill-rule:nonzero;stroke:none;stroke-width:0;stroke-linecap:round;stroke-linejoin:round;stroke-miterlimit:4;stroke-dasharray:none;stroke-opacity:1;paint-order:markers fill stroke" />
      </g>
      <path
         style="fill:#c8e7f7;fill-opacity:1;fill-rule:evenodd;stroke:none;stroke-width:0.21263638px;stroke-linecap:butt;stroke-linejoin:miter;stroke-opacity:1"
         d="m 38.412756,272.68265 c -0.680576,0.53149 0.05504,1.10602 0.340293,1.32873 0.680631,0.53136 1.70142,1.13125 1.70142,1.59444 l 9e-6,0.26574 c -1.5e-5,0.46318 -1.020798,1.06308 -1.701437,1.59446 -0.285247,0.2227 -1.020853,0.79721 -0.340285,1.3287 0.680584,0.53149 1.416276,-0.043 1.701437,-0.26574 0.680428,-0.53154 1.448608,-1.32869 2.041715,-1.32872 l 0.340283,2e-5 c 0.593113,0 1.361293,0.79716 2.041721,1.3287 0.285162,0.22277 1.020838,0.79723 1.701429,0.26574 0.680569,-0.53149 -0.05504,-1.106 -0.340283,-1.3287 -0.680632,-0.53138 -1.701414,-1.13129 -1.701429,-1.59446 l -8e-6,-0.26574 c 2.3e-5,-0.46317 1.020797,-1.06309 1.701443,-1.59445 0.28525,-0.22269 1.020846,-0.79723 0.340277,-1.32871 -0.680583,-0.53148 -1.416266,0.043 -1.701429,0.26573 -0.680435,0.53154 -1.448608,1.32871 -2.041721,1.32872 l -0.340283,-10e-6 c -0.593099,0 -1.361287,-0.79716 -2.041714,-1.3287 -0.28517,-0.22276 -1.020854,-0.79723 -1.701438,-0.26575 z"
         id="path4697"
         inkscape:connector-curvature="0"
         inkscape:transform-center-x="-0.14781171"
         inkscape:transform-center-y="-0.11542782" />
    </g>
  </g>
</svg>
