<?xml version="1.0" encoding="UTF-8" standalone="no"?>
<!-- Created with Inkscape (http://www.inkscape.org/) -->

<svg
   xmlns:dc="http://purl.org/dc/elements/1.1/"
   xmlns:cc="http://creativecommons.org/ns#"
   xmlns:rdf="http://www.w3.org/1999/02/22-rdf-syntax-ns#"
   xmlns:svg="http://www.w3.org/2000/svg"
   xmlns="http://www.w3.org/2000/svg"
   xmlns:xlink="http://www.w3.org/1999/xlink"
   xmlns:sodipodi="http://sodipodi.sourceforge.net/DTD/sodipodi-0.dtd"
   xmlns:inkscape="http://www.inkscape.org/namespaces/inkscape"
   width="64"
   height="64"
   viewBox="0 0 16.933333 16.933333"
   version="1.1"
   id="svg8546"
   inkscape:version="0.92.1 r15371"
   sodipodi:docname="new-bundle.svg"
   inkscape:export-filename="/home/martin/Programovani/Java/java8-2/jmop/jmop/src/main/resources/cz/martlin/jmop/gui/img/new-bundle.png"
   inkscape:export-xdpi="96"
   inkscape:export-ydpi="96">
  <defs
     id="defs8540">
    <linearGradient
       inkscape:collect="always"
       xlink:href="#linearGradient4633"
       id="linearGradient4578"
       x1="32"
       y1="192"
       x2="32"
       y2="128"
       gradientUnits="userSpaceOnUse"
       gradientTransform="matrix(0.27275495,0,0,0.27275495,101.10971,244.87686)" />
    <linearGradient
       id="linearGradient4633"
       inkscape:collect="always">
      <stop
         id="stop4629"
         offset="0"
         style="stop-color:#9ad8ff;stop-opacity:1" />
      <stop
         id="stop4631"
         offset="1"
         style="stop-color:#3b82ac;stop-opacity:1" />
    </linearGradient>
  </defs>
  <sodipodi:namedview
     id="base"
     pagecolor="#ffffff"
     bordercolor="#666666"
     borderopacity="1.0"
     inkscape:pageopacity="0.0"
     inkscape:pageshadow="2"
     inkscape:zoom="7.919596"
     inkscape:cx="48.018353"
     inkscape:cy="30.242711"
     inkscape:document-units="px"
     inkscape:current-layer="layer1"
     showgrid="true"
     units="px"
     inkscape:window-width="1366"
     inkscape:window-height="712"
     inkscape:window-x="0"
     inkscape:window-y="0"
     inkscape:window-maximized="1">
    <inkscape:grid
       type="xygrid"
       id="grid9109" />
  </sodipodi:namedview>
  <metadata
     id="metadata8543">
    <rdf:RDF>
      <cc:Work
         rdf:about="">
        <dc:format>image/svg+xml</dc:format>
        <dc:type
           rdf:resource="http://purl.org/dc/dcmitype/StillImage" />
        <dc:title />
      </cc:Work>
    </rdf:RDF>
  </metadata>
  <g
     inkscape:label="Vrstva 1"
     inkscape:groupmode="layer"
     id="layer1"
     transform="translate(0,-280.06665)">
    <g
       transform="matrix(1.0714289,0,0,1.0714289,-109.48086,-21.485268)"
       id="g4559">
      <path
         style="fill:url(#linearGradient4578);fill-opacity:1;fill-rule:evenodd;stroke:none;stroke-width:0.27275497px;stroke-linecap:butt;stroke-linejoin:miter;stroke-opacity:1"
         d="m 105.74655,281.97154 c -0.26746,0.0535 1.09102,1.90928 0.81826,2.18204 -2.47476,2.47476 -3.90647,-10e-6 -3.90647,7.63713 0,4.2062 2.82336,4.36408 7.17953,4.36408 4.35617,0 7.63714,-0.15788 7.63714,-4.36408 0,-7.63714 -1.88931,-5.16237 -4.36408,-7.63713 -0.54551,-0.54551 1.35563,-2.2482 1.09102,-2.18204 -3.27306,0.81826 -7.09163,-0.27276 -8.4554,0 z"
         id="path4565"
         inkscape:connector-curvature="0"
         sodipodi:nodetypes="ssssssss" />
      <path
         style="fill:#c8e7f7;fill-opacity:1;fill-rule:evenodd;stroke:none;stroke-width:0.21754639px;stroke-linecap:butt;stroke-linejoin:miter;stroke-opacity:1"
         d="m 110.08432,285.39948 c -0.8702,1e-5 -0.87024,0.94061 -0.87019,1.30529 1.3e-4,0.87013 0.16163,2.01382 -0.21755,2.393 l -0.21754,0.21755 c -0.37919,0.37917 -1.52287,0.21767 -2.39301,0.21754 -0.36467,-5e-5 -1.30527,0 -1.30528,0.87019 1e-5,0.87019 0.94061,0.87025 1.30528,0.87019 0.87014,-1.4e-4 2.01382,-0.16162 2.39301,0.21754 l 0.21754,0.21755 c 0.37918,0.37918 0.21768,1.52288 0.21755,2.39301 -5e-5,0.36466 -1e-5,1.30526 0.87019,1.30527 0.87019,-10e-6 0.87024,-0.94061 0.87018,-1.30527 -1.3e-4,-0.87013 -0.16161,-2.01383 0.21755,-2.39301 l 0.21754,-0.21755 c 0.37919,-0.37916 1.52288,-0.21768 2.39302,-0.21754 0.36466,6e-5 1.30526,0 1.30527,-0.87019 -1e-5,-0.87019 -0.94061,-0.87024 -1.30527,-0.87019 -0.87014,1.3e-4 -2.01383,0.16163 -2.39302,-0.21754 l -0.21754,-0.21755 c -0.37916,-0.37918 -0.21768,-1.52287 -0.21755,-2.393 6e-5,-0.36468 1e-5,-1.30528 -0.87018,-1.30529 z"
         id="path4555"
         inkscape:connector-curvature="0" />
    </g>
  </g>
</svg>
