<?xml version="1.0" encoding="UTF-8" standalone="no"?>
<!-- Created with Inkscape (http://www.inkscape.org/) -->

<svg
   xmlns:dc="http://purl.org/dc/elements/1.1/"
   xmlns:cc="http://creativecommons.org/ns#"
   xmlns:rdf="http://www.w3.org/1999/02/22-rdf-syntax-ns#"
   xmlns:svg="http://www.w3.org/2000/svg"
   xmlns="http://www.w3.org/2000/svg"
   xmlns:xlink="http://www.w3.org/1999/xlink"
   xmlns:sodipodi="http://sodipodi.sourceforge.net/DTD/sodipodi-0.dtd"
   xmlns:inkscape="http://www.inkscape.org/namespaces/inkscape"
   width="64"
   height="64"
   viewBox="0 0 16.933333 16.933333"
   version="1.1"
   id="svg8546"
   inkscape:version="0.92.1 r15371"
   sodipodi:docname="save-playlist.svg"
   inkscape:export-filename="/home/martin/Programovani/Java/java8-2/jmop/jmop/src/main/resources/cz/martlin/jmop/gui/img/save-playlist.png"
   inkscape:export-xdpi="96"
   inkscape:export-ydpi="96">
  <defs
     id="defs8540">
    <linearGradient
       inkscape:collect="always"
       xlink:href="#linearGradient4633"
       id="linearGradient9527"
       gradientUnits="userSpaceOnUse"
       x1="42.333336"
       y1="279.00833"
       x2="42.333336"
       y2="264.19165"
       gradientTransform="translate(16.933334)" />
    <linearGradient
       id="linearGradient4633"
       inkscape:collect="always">
      <stop
         id="stop4629"
         offset="0"
         style="stop-color:#9ad8ff;stop-opacity:1" />
      <stop
         id="stop4631"
         offset="1"
         style="stop-color:#3b82ac;stop-opacity:1" />
    </linearGradient>
    <linearGradient
       inkscape:collect="always"
       xlink:href="#linearGradient4633"
       id="linearGradient12755"
       gradientUnits="userSpaceOnUse"
       gradientTransform="translate(16.933334)"
       x1="42.333336"
       y1="279.00833"
       x2="42.333336"
       y2="264.19165" />
    <linearGradient
       inkscape:collect="always"
       xlink:href="#linearGradient4633"
       id="linearGradient12757"
       gradientUnits="userSpaceOnUse"
       gradientTransform="translate(16.933334)"
       x1="42.333336"
       y1="279.00833"
       x2="42.333336"
       y2="264.19165" />
    <linearGradient
       inkscape:collect="always"
       xlink:href="#linearGradient4633"
       id="linearGradient12759"
       gradientUnits="userSpaceOnUse"
       gradientTransform="translate(16.933334)"
       x1="42.333336"
       y1="279.00833"
       x2="42.333336"
       y2="264.19165" />
    <linearGradient
       inkscape:collect="always"
       xlink:href="#linearGradient4633"
       id="linearGradient12761"
       gradientUnits="userSpaceOnUse"
       gradientTransform="translate(16.933334)"
       x1="42.333336"
       y1="279.00833"
       x2="42.333336"
       y2="264.19165" />
  </defs>
  <sodipodi:namedview
     id="base"
     pagecolor="#ffffff"
     bordercolor="#666666"
     borderopacity="1.0"
     inkscape:pageopacity="0.0"
     inkscape:pageshadow="2"
     inkscape:zoom="3.959798"
     inkscape:cx="10.549651"
     inkscape:cy="13.810481"
     inkscape:document-units="px"
     inkscape:current-layer="layer1"
     showgrid="true"
     units="px"
     inkscape:window-width="1366"
     inkscape:window-height="712"
     inkscape:window-x="0"
     inkscape:window-y="0"
     inkscape:window-maximized="1">
    <inkscape:grid
       type="xygrid"
       id="grid9109" />
  </sodipodi:namedview>
  <metadata
     id="metadata8543">
    <rdf:RDF>
      <cc:Work
         rdf:about="">
        <dc:format>image/svg+xml</dc:format>
        <dc:type
           rdf:resource="http://purl.org/dc/dcmitype/StillImage" />
        <dc:title />
      </cc:Work>
    </rdf:RDF>
  </metadata>
  <g
     inkscape:label="Vrstva 1"
     inkscape:groupmode="layer"
     id="layer1"
     transform="translate(0,-280.06665)">
    <g
       id="g5978"
       transform="matrix(1.1223513,0,0,1.1223513,-58.097483,-16.48156)">
      <path
         style="opacity:1;fill:url(#linearGradient12755);fill-opacity:1;fill-rule:nonzero;stroke:none;stroke-width:0;stroke-linecap:round;stroke-linejoin:round;stroke-miterlimit:4;stroke-dasharray:none;stroke-opacity:1;paint-order:markers fill stroke"
         d="m 52.934283,277.15624 c 0.235723,-0.23572 0.668312,-0.0325 1.000088,0 3.525423,0.34529 7.066057,0.36022 10.623964,0 0.356825,-0.0361 0.822345,-0.2536 1.075948,0 0.266567,0.26657 0,0.68135 0,1.05833 0,0.32857 0.232336,0.56141 0,0.79375 -0.24945,0.24945 -0.705555,10e-6 -1.058333,10e-6 -3.530489,2e-5 -7.060978,-10e-6 -10.591466,-10e-6 -0.350067,0 -0.802666,0.24753 -1.050201,0 -0.240211,-0.24021 0,-0.45404 0,-0.79375 0,-0.36585 -0.258693,-0.79964 0,-1.05833 z"
         id="path9515"
         inkscape:connector-curvature="0"
         sodipodi:nodetypes="sssssssssss" />
      <path
         sodipodi:nodetypes="sssssssssss"
         inkscape:connector-curvature="0"
         id="path9517"
         d="m 52.934283,274.77498 c 0.235723,-0.23572 0.668312,-0.0325 1.000088,0 3.525423,0.34529 7.066057,0.36022 10.623964,0 0.356825,-0.0361 0.822345,-0.2536 1.075948,0 0.266567,0.26657 0,0.68135 0,1.05833 0,0.32857 0.232336,0.56141 0,0.79375 -0.24945,0.24945 -0.705555,1e-5 -1.058333,1e-5 -3.530489,2e-5 -7.060978,-1e-5 -10.591466,-1e-5 -0.350067,0 -0.802666,0.24753 -1.050201,0 -0.240211,-0.24021 0,-0.45404 0,-0.79375 0,-0.36585 -0.258693,-0.79964 0,-1.05833 z"
         style="opacity:1;fill:url(#linearGradient12757);fill-opacity:1;fill-rule:nonzero;stroke:none;stroke-width:0;stroke-linecap:round;stroke-linejoin:round;stroke-miterlimit:4;stroke-dasharray:none;stroke-opacity:1;paint-order:markers fill stroke" />
      <path
         style="opacity:1;fill:url(#linearGradient12759);fill-opacity:1;fill-rule:nonzero;stroke:none;stroke-width:0;stroke-linecap:round;stroke-linejoin:round;stroke-miterlimit:4;stroke-dasharray:none;stroke-opacity:1;paint-order:markers fill stroke"
         d="m 52.934283,268.95414 c 0.235723,-0.23572 0.668312,-0.0325 1.000088,0 3.525423,0.34529 7.066057,0.36022 10.623964,0 0.356825,-0.0361 0.822345,-0.2536 1.075948,0 0.266567,0.26657 0,2.53344 0,2.91042 0,0.32857 0.232336,2.41349 0,2.64583 -0.24945,0.24945 -0.705555,1e-5 -1.058333,1e-5 -3.530489,2e-5 -7.060978,-1e-5 -10.591466,-1e-5 -0.350067,0 -0.802666,0.24753 -1.050201,0 -0.240211,-0.24021 0,-2.30612 0,-2.64583 0,-0.36585 -0.258693,-2.65173 0,-2.91042 z"
         id="path9519"
         inkscape:connector-curvature="0"
         sodipodi:nodetypes="sssssssssss" />
      <path
         sodipodi:nodetypes="sssssssssss"
         inkscape:connector-curvature="0"
         id="path9521"
         d="m 52.934283,266.83748 c 0.235723,-0.23572 0.668312,-0.0325 1.000088,0 3.525423,0.34529 7.066057,0.36022 10.623964,0 0.356825,-0.0361 0.822345,-0.2536 1.075948,0 0.266567,0.26657 0,0.68135 0,1.05833 0,0.32857 0.232336,0.56141 0,0.79375 -0.24945,0.24945 -0.705555,1e-5 -1.058333,1e-5 -3.530489,2e-5 -7.060978,-1e-5 -10.591466,-1e-5 -0.350067,0 -0.802666,0.24753 -1.050201,0 -0.240211,-0.24021 0,-0.45404 0,-0.79375 0,-0.36585 -0.258693,-0.79964 0,-1.05833 z"
         style="opacity:1;fill:url(#linearGradient12761);fill-opacity:1;fill-rule:nonzero;stroke:none;stroke-width:0;stroke-linecap:round;stroke-linejoin:round;stroke-miterlimit:4;stroke-dasharray:none;stroke-opacity:1;paint-order:markers fill stroke" />
      <path
         style="opacity:1;fill:url(#linearGradient9527);fill-opacity:1;fill-rule:nonzero;stroke:none;stroke-width:0;stroke-linecap:round;stroke-linejoin:round;stroke-miterlimit:4;stroke-dasharray:none;stroke-opacity:1;paint-order:markers fill stroke"
         d="m 52.934283,264.45623 c 0.235723,-0.23572 0.668312,-0.0325 1.000088,0 3.525423,0.34529 7.066057,0.36022 10.623964,0 0.356825,-0.0361 0.822345,-0.2536 1.075948,0 0.266567,0.26657 0,0.68135 0,1.05833 0,0.32857 0.232336,0.56141 0,0.79375 -0.24945,0.24945 -0.705555,10e-6 -1.058333,10e-6 -3.530489,2e-5 -7.060978,-10e-6 -10.591466,-10e-6 -0.350067,0 -0.802666,0.24753 -1.050201,0 -0.240211,-0.24021 0,-0.45404 0,-0.79375 0,-0.36585 -0.258693,-0.79964 0,-1.05833 z"
         id="path9523"
         inkscape:connector-curvature="0"
         sodipodi:nodetypes="sssssssssss" />
      <path
         style="fill:#c8e7f7;fill-opacity:1;fill-rule:evenodd;stroke:none;stroke-width:0.48911703px;stroke-linecap:butt;stroke-linejoin:miter;stroke-opacity:1"
         d="m 60.250728,273.06286 c 0.613555,0.22102 -0.07783,2.76788 0.489116,2.44559 2.287659,-1.30046 4.078315,-2.1949 3.912938,-3.91295 -0.142585,-1.48128 -1.704328,-2.95376 -3.912938,-3.91292 -0.682692,-0.29649 0.633629,2.31868 -0.489116,2.44557 -6.296737,0.71169 -5.38029,7.33675 -4.891174,7.33675 0.978236,0 1.459559,-5.63828 4.891174,-4.40204 z"
         id="path4564"
         inkscape:connector-curvature="0"
         sodipodi:nodetypes="sssssss" />
    </g>
  </g>
</svg>
