<?xml version="1.0" encoding="UTF-8" standalone="no"?>
<!-- Created with Inkscape (http://www.inkscape.org/) -->

<svg
   xmlns:dc="http://purl.org/dc/elements/1.1/"
   xmlns:cc="http://creativecommons.org/ns#"
   xmlns:rdf="http://www.w3.org/1999/02/22-rdf-syntax-ns#"
   xmlns:svg="http://www.w3.org/2000/svg"
   xmlns="http://www.w3.org/2000/svg"
   xmlns:xlink="http://www.w3.org/1999/xlink"
   xmlns:sodipodi="http://sodipodi.sourceforge.net/DTD/sodipodi-0.dtd"
   xmlns:inkscape="http://www.inkscape.org/namespaces/inkscape"
   width="64"
   height="64"
   viewBox="0 0 16.933333 16.933333"
   version="1.1"
   id="svg8"
   inkscape:version="0.92.1 r15371"
   sodipodi:docname="settings.svg"
   inkscape:export-filename="/home/martin/Programovani/Java/java8-2/jmop/jmop/src/main/resources/cz/martlin/jmop/gui/img/about.png"
   inkscape:export-xdpi="96"
   inkscape:export-ydpi="96">
  <defs
     id="defs2">
    <linearGradient
       inkscape:collect="always"
       id="linearGradient4571">
      <stop
         style="stop-color:#9ad8ff;stop-opacity:1"
         offset="0"
         id="stop4567" />
      <stop
         style="stop-color:#3b82ac;stop-opacity:1"
         offset="1"
         id="stop4569" />
    </linearGradient>
    <linearGradient
       inkscape:collect="always"
       xlink:href="#linearGradient4571"
       id="linearGradient4627"
       gradientUnits="userSpaceOnUse"
       x1="6.4697509"
       y1="295.50342"
       x2="13.632477"
       y2="283.0972" />
    <mask
       maskUnits="userSpaceOnUse"
       id="mask4623">
      <path
         inkscape:transform-center-y="0.71539984"
         transform="matrix(1.0396755,-0.60025694,0.60025694,1.0396755,-174.84401,-6.3441742)"
         inkscape:transform-center-x="-4.6467179"
         d="m 15.04391,292.31939 c -0.522438,1.1296 -4.891474,1.03691 -6.1360352,1.0356 -1.4199122,-0.001 -6.2035029,0.11112 -7.0215726,-1.04945 -0.7170431,-1.01724 1.5477422,-4.7546 2.171162,-5.83176 0.7112555,-1.22893 3.0055176,-5.42795 4.4196325,-5.55614 1.2394805,-0.11235 3.3437313,3.71769 3.9648733,4.79616 0.708656,1.23044 3.197985,5.31684 2.60194,6.60559 z"
         inkscape:randomized="0"
         inkscape:rounded="0.2"
         inkscape:flatsided="false"
         sodipodi:arg2="1.4804029"
         sodipodi:arg1="0.52465108"
         sodipodi:r2="4.860641"
         sodipodi:r1="7.5965524"
         sodipodi:cy="288.51419"
         sodipodi:cx="8.4691029"
         sodipodi:sides="3"
         id="path4625"
         style="opacity:1;fill:url(#linearGradient4627);fill-opacity:1;fill-rule:nonzero;stroke:none;stroke-width:0.40000001;stroke-linecap:round;stroke-linejoin:round;stroke-miterlimit:4;stroke-dasharray:none;stroke-opacity:1;paint-order:markers fill stroke"
         sodipodi:type="star" />
    </mask>
    <linearGradient
       inkscape:collect="always"
       xlink:href="#linearGradient4571"
       id="linearGradient14550"
       x1="25.4"
       y1="263.13333"
       x2="25.4"
       y2="246.19998"
       gradientUnits="userSpaceOnUse" />
  </defs>
  <sodipodi:namedview
     id="base"
     pagecolor="#ffffff"
     bordercolor="#666666"
     borderopacity="1.0"
     inkscape:pageopacity="0.0"
     inkscape:pageshadow="2"
     inkscape:zoom="8.0000002"
     inkscape:cx="58.104514"
     inkscape:cy="34.978123"
     inkscape:document-units="px"
     inkscape:current-layer="layer1"
     showgrid="true"
     units="px"
     inkscape:window-width="1366"
     inkscape:window-height="712"
     inkscape:window-x="0"
     inkscape:window-y="0"
     inkscape:window-maximized="1"
     inkscape:snap-center="false"
     inkscape:snap-object-midpoints="false"
     inkscape:snap-page="true"
     inkscape:snap-global="true"
     inkscape:snap-bbox="true"
     inkscape:snap-nodes="true"
     inkscape:snap-bbox-midpoints="false"
     inkscape:snap-bbox-edge-midpoints="true"
     inkscape:bbox-nodes="true"
     inkscape:bbox-paths="true"
     inkscape:snap-intersection-paths="true"
     inkscape:snap-smooth-nodes="true">
    <inkscape:grid
       type="xygrid"
       id="grid4504" />
  </sodipodi:namedview>
  <metadata
     id="metadata5">
    <rdf:RDF>
      <cc:Work
         rdf:about="">
        <dc:format>image/svg+xml</dc:format>
        <dc:type
           rdf:resource="http://purl.org/dc/dcmitype/StillImage" />
        <dc:title></dc:title>
      </cc:Work>
    </rdf:RDF>
  </metadata>
  <g
     inkscape:label="Vrstva 1"
     inkscape:groupmode="layer"
     id="layer1"
     transform="translate(0,-280.06667)">
    <g
       id="g14558"
       transform="matrix(0.98974133,0.57142741,-0.57142741,0.98974133,128.88331,22.386818)">
      <path
         d="m 25.4,247.25832 c 1.197279,-0.0146 1.010444,1.65845 2.116667,2.11666 1.153842,0.47794 2.228006,-0.81909 3.121821,0.0532 0.856928,0.83628 -0.458212,1.88719 0,2.99342 0.477936,1.15384 2.154624,0.99625 2.169853,2.24507 0.0146,1.19727 -1.658454,1.01044 -2.116667,2.11666 -0.477937,1.15384 0.819094,2.22801 -0.05318,3.12182 -0.83628,0.85693 -1.887196,-0.45821 -2.99342,0 -1.153842,0.47794 -0.996251,2.15463 -2.245067,2.16986 -1.197279,0.0146 -1.010444,-1.65846 -2.116667,-2.11667 -1.153842,-0.47794 -2.228005,0.81909 -3.121821,-0.0532 -0.856928,-0.83628 0.458212,-1.88719 0,-2.99341 -0.477936,-1.15385 -2.154624,-0.99626 -2.169853,-2.24507 -0.0146,-1.19728 1.658454,-1.01045 2.116667,-2.11667 0.477937,-1.15384 -0.819094,-2.228 0.05318,-3.12182 0.836279,-0.85693 1.887195,0.45821 2.993419,0 1.153842,-0.47794 0.996251,-2.15462 2.245067,-2.16985 z"
         inkscape:randomized="0"
         inkscape:rounded="0.4"
         inkscape:flatsided="false"
         sodipodi:arg2="-1.1902905"
         sodipodi:arg1="-1.5707965"
         sodipodi:r2="5.6993046"
         sodipodi:r1="7.4083395"
         sodipodi:cy="254.66666"
         sodipodi:cx="25.400002"
         sodipodi:sides="8"
         id="path14542"
         style="opacity:1;fill:url(#linearGradient14550);fill-opacity:1;fill-rule:nonzero;stroke:none;stroke-width:0;stroke-linecap:round;stroke-linejoin:round;stroke-miterlimit:4;stroke-dasharray:none;stroke-opacity:1;paint-order:markers fill stroke"
         sodipodi:type="star" />
      <circle
         r="3.1750002"
         cy="254.66666"
         cx="25.400002"
         id="path14554"
         style="opacity:1;fill:#c8e7f7;fill-opacity:1;fill-rule:nonzero;stroke:none;stroke-width:0;stroke-linecap:round;stroke-linejoin:round;stroke-miterlimit:4;stroke-dasharray:none;stroke-opacity:1;paint-order:markers fill stroke" />
    </g>
  </g>
</svg>
